<?xml version="1.0" encoding="UTF-8" standalone="no"?>
<!-- Created with Inkscape (http://www.inkscape.org/) -->
<svg
   xmlns:dc="http://purl.org/dc/elements/1.1/"
   xmlns:cc="http://creativecommons.org/ns#"
   xmlns:rdf="http://www.w3.org/1999/02/22-rdf-syntax-ns#"
   xmlns:svg="http://www.w3.org/2000/svg"
   xmlns="http://www.w3.org/2000/svg"
   xmlns:sodipodi="http://sodipodi.sourceforge.net/DTD/sodipodi-0.dtd"
   xmlns:inkscape="http://www.inkscape.org/namespaces/inkscape"
   width="499.43036"
   height="274.79263"
   id="svg6420"
   sodipodi:version="0.32"
   inkscape:version="0.46"
   version="1.0"
   sodipodi:docname="side_back.svg"
   inkscape:output_extension="org.inkscape.output.svg.inkscape">
  <defs
     id="defs6422">
    <inkscape:perspective
       sodipodi:type="inkscape:persp3d"
       inkscape:vp_x="0 : 526.18109 : 1"
       inkscape:vp_y="0 : 1000 : 0"
       inkscape:vp_z="744.09448 : 526.18109 : 1"
       inkscape:persp3d-origin="372.04724 : 350.78739 : 1"
       id="perspective6428" />
  </defs>
  <sodipodi:namedview
     id="base"
     pagecolor="#ffffff"
     bordercolor="#666666"
     borderopacity="1.0"
     gridtolerance="10000"
     guidetolerance="10"
     objecttolerance="10"
     inkscape:pageopacity="0.0"
     inkscape:pageshadow="2"
     inkscape:zoom="0.35"
     inkscape:cx="375"
     inkscape:cy="520"
     inkscape:document-units="px"
     inkscape:current-layer="layer1"
     showgrid="false"
     inkscape:window-width="640"
     inkscape:window-height="701"
     inkscape:window-x="335"
     inkscape:window-y="107" />
  <metadata
     id="metadata6425">
    <rdf:RDF>
      <cc:Work
         rdf:about="">
        <dc:format>image/svg+xml</dc:format>
        <dc:type
           rdf:resource="http://purl.org/dc/dcmitype/StillImage" />
      </cc:Work>
    </rdf:RDF>
  </metadata>
  <g
     inkscape:label="Layer 1"
     inkscape:groupmode="layer"
     id="layer1"
     transform="translate(-73.141971,-14.965876)">
    <g
       id="g2773"
       transform="matrix(1.1948631,0,0,1.1948631,-649.7614,-594.05354)"
       inkscape:export-filename="/Users/awagner/Documents/face_recognition_short_presentation/camera_rig_drawings/slide2.png"
       inkscape:export-xdpi="153.34108"
       inkscape:export-ydpi="153.34108">
      <g
         inkscape:export-ydpi="90"
         inkscape:export-xdpi="90"
         inkscape:export-filename="/Users/awagner/svn_faces/latex/motiontest2.png"
         style="stroke-width:4.94915009;stroke-miterlimit:4;stroke-dasharray:none;display:inline"
         transform="matrix(-4.5156808e-8,0.2507436,0.2695901,0,750.21656,557.4672)"
         id="g11611">
        <rect
           y="149.36218"
           x="292"
           height="61"
           width="33"
           id="rect11613"
           style="fill:#ffffff;stroke:#000000;stroke-width:7.69242287;stroke-miterlimit:4;stroke-dasharray:none" />
        <path
           sodipodi:nodetypes="cccc"
           id="path11615"
           d="M 293.36351,226.7283 L 308.56573,211.82794 L 324.44975,226.66894 L 293.36351,226.7283 z"
           style="fill:none;fill-rule:evenodd;stroke:#000000;stroke-width:7.69242287;stroke-linecap:butt;stroke-linejoin:miter;stroke-miterlimit:4;stroke-dasharray:none;stroke-opacity:1" />
      </g>
      <path
         inkscape:export-ydpi="90"
         inkscape:export-xdpi="90"
         inkscape:export-filename="/Users/awagner/svn_faces/latex/motiontest2.png"
         sodipodi:nodetypes="ccccc"
         id="path11617"
         d="M 606.00937,510.69807 L 1021.9906,510.69807 L 1021.9906,738.6764 L 606.00937,738.6764 L 606.00937,510.69807 z"
         style="fill:none;stroke:#000000;stroke-width:2;stroke-miterlimit:4;display:inline" />
      <g
         inkscape:export-ydpi="90"
         inkscape:export-xdpi="90"
         inkscape:export-filename="/Users/awagner/svn_faces/latex/motiontest2.png"
         transform="matrix(0.8018509,0,0,0.801487,470.47703,396.0935)"
         id="g11619"
         style="display:inline">
        <g
           id="g11621"
           transform="matrix(1.0778868,0,0,1.0056013,-22.373528,-1.6583139)">
          <g
             style="stroke-width:4.94915009;stroke-miterlimit:4;stroke-dasharray:none;display:inline"
             transform="matrix(-7.0170916e-8,0.3898171,0.4189265,0,214.47983,177.53416)"
             id="g11623">
            <g
               id="g11625">
              <path
                 style="fill:#ffffff;stroke:#000000;stroke-width:5.92974567;stroke-miterlimit:4"
                 d="M 286.86939,115.94343 L 325,115.94343 L 325,210.36218 L 286.86939,210.36218 L 286.86939,115.94343 z"
                 id="path11627"
                 sodipodi:nodetypes="ccccc" />
            </g>
            <path
               sodipodi:nodetypes="cccc"
               id="path11629"
               d="M 283.10229,231.50241 L 298.04618,213.976 L 314.18853,231.44305 L 283.10229,231.50241 z"
               style="fill:none;fill-rule:evenodd;stroke:#000000;stroke-width:5.92974567;stroke-linecap:butt;stroke-linejoin:miter;stroke-miterlimit:4;stroke-dasharray:none;stroke-opacity:1" />
          </g>
        </g>
      </g>
      <g
         inkscape:export-ydpi="90"
         inkscape:export-xdpi="90"
         inkscape:export-filename="/Users/awagner/svn_faces/latex/motiontest2.png"
         id="g11631"
         transform="matrix(0.7840714,-0.1678438,0.16792,0.7837154,423.96783,431.36903)"
         style="display:inline">
        <g
           transform="matrix(1.0778868,0,0,1.0056013,-22.373528,-1.6583139)"
           id="g11633">
          <g
             id="g11635"
             transform="matrix(-7.0170916e-8,0.3898171,0.4189265,0,214.47983,177.53416)"
             style="stroke-width:4.94915009;stroke-miterlimit:4;stroke-dasharray:none;display:inline">
            <g
               id="g11637">
              <path
                 sodipodi:nodetypes="ccccc"
                 id="path11639"
                 d="M 286.86939,115.94343 L 325,115.94343 L 325,210.36218 L 286.86939,210.36218 L 286.86939,115.94343 z"
                 style="fill:#ffffff;stroke:#000000;stroke-width:5.92974567;stroke-miterlimit:4" />
            </g>
            <path
               style="fill:none;fill-rule:evenodd;stroke:#000000;stroke-width:5.92974567;stroke-linecap:butt;stroke-linejoin:miter;stroke-miterlimit:4;stroke-dasharray:none;stroke-opacity:1"
               d="M 283.10229,231.50241 L 298.04618,213.976 L 314.18853,231.44305 L 283.10229,231.50241 z"
               id="path11641"
               sodipodi:nodetypes="cccc" />
          </g>
        </g>
      </g>
      <path
         inkscape:export-ydpi="90"
         inkscape:export-xdpi="90"
         inkscape:export-filename="/Users/awagner/svn_faces/latex/motiontest2.png"
         sodipodi:nodetypes="ccccc"
         d="M 760.00558,738.049 L 798.54965,640.4068 L 836.31349,738.2049 M 774.10075,702.0633 L 822.43108,702.0633"
         style="fill:none;fill-rule:evenodd;stroke:#000000;stroke-width:2;stroke-linecap:butt;stroke-linejoin:miter;stroke-miterlimit:4;stroke-dasharray:none;stroke-opacity:1;display:inline"
         id="path11643" />
      <rect
         inkscape:export-ydpi="90"
         inkscape:export-xdpi="90"
         inkscape:export-filename="/Users/awagner/svn_faces/latex/motiontest2.png"
         transform="matrix(-3.6778275e-8,1,-1,-3.6744889e-8,0,0)"
         style="fill:none;stroke:#000000;stroke-width:1.99999964;stroke-miterlimit:4;stroke-dasharray:none;display:inline"
         id="rect11649"
         width="91.300407"
         height="7.651669"
         x="646.84375"
         y="-659.72205"
         ry="0"
         rx="0" />
      <rect
         inkscape:export-ydpi="90"
         inkscape:export-xdpi="90"
         inkscape:export-filename="/Users/awagner/svn_faces/latex/motiontest2.png"
         rx="0"
         ry="0"
         y="-718.18884"
         x="646.84375"
         height="7.651669"
         width="91.300407"
         id="rect11651"
         style="fill:none;stroke:#000000;stroke-width:1.99999964;stroke-miterlimit:4;stroke-dasharray:none;display:inline"
         transform="matrix(-3.6778275e-8,1,-1,-3.6744889e-8,0,0)" />
      <path
         inkscape:export-ydpi="90"
         inkscape:export-xdpi="90"
         inkscape:export-filename="/Users/awagner/svn_faces/latex/motiontest2.png"
         sodipodi:nodetypes="ccccc"
         id="path11653"
         d="M 632.34343,641.3259 L 738.76183,641.3259 L 738.76183,650.1691 L 632.34343,650.1691 L 632.34343,641.3259 z"
         style="fill:#ffffff;fill-opacity:1;stroke:#000000;stroke-width:1.99999976;stroke-miterlimit:4;display:inline" />
      <g
         inkscape:export-ydpi="90"
         inkscape:export-xdpi="90"
         inkscape:export-filename="/Users/awagner/svn_faces/latex/motiontest2.png"
         transform="matrix(0.6632364,0,0,0.6625523,570.54072,422.38119)"
         id="g11655"
         style="display:inline">
        <path
           style="fill:none;fill-rule:evenodd;stroke:#000000;stroke-width:3.01707244;stroke-linecap:butt;stroke-linejoin:miter;stroke-miterlimit:4;stroke-dasharray:none;stroke-opacity:1;display:inline"
           d="M 494.62896,358.21637 C 492.48778,368.34294 487.16836,382.96762 485.38977,385.01969 C 483.73164,387.06797 473.12783,394.72617 466.63495,397.5089 C 463.40648,399.4573 459.64618,400.09731 456.20485,401.50891 C 454.70126,402.15864 455.11922,403.56584 455.26883,404.81938"
           id="path11657"
           sodipodi:nodetypes="ccccc" />
        <g
           id="g11659">
          <path
             sodipodi:nodetypes="cccccccccccc"
             id="path11661"
             d="M 512.47794,474.61619 L 524.11635,474.65325 L 524.11635,426.38808 L 534.49654,365.90387 L 525.33756,364.68197 L 514.21718,424.04318 L 465.49887,425.16617 L 466.72007,475.2642 L 477.71085,475.2642 L 477.71085,436.16329 L 512.51498,436.16329 L 512.47794,474.61619 z"
             style="fill:none;fill-rule:evenodd;stroke:#000000;stroke-width:3.01707244;stroke-linecap:butt;stroke-linejoin:miter;stroke-miterlimit:4;stroke-dasharray:none;stroke-opacity:1;display:inline" />
          <path
             sodipodi:nodetypes="ccczsccccccccccczcccccsc"
             id="path11663"
             d="M 483.64296,388.29909 C 483.96342,379.41958 482.97385,370.41463 484.21569,361.61712 C 487.00569,353.93114 493.54878,347.57058 492.31047,338.70325 C 492.93608,330.97343 482.28388,335.28839 482.29193,328.91997 C 482.29997,322.55154 479.52925,320.04765 480.32956,318.01339 C 480.93909,316.46402 482.1053,315.04751 483.80446,313.73694 C 483.57637,307.15706 490.65879,302.1084 496.53433,300.57942 C 503.26004,299.65354 511.2922,303.3059 511.42828,310.95801 C 512.04894,317.37774 508.94313,323.23936 505.99972,328.64109 C 503.10819,336.27039 506.98177,343.62066 508.83285,350.89894 C 510.84224,358.78144 511.14845,367.17267 512.10031,375.27024 C 512.29324,384.07666 515.94974,392.50817 516.32777,401.23876 C 516.14541,408.79041 515.25748,418.67981 507.08501,421.85485 C 499.44885,424.83628 491.13699,422.80411 483.16896,423.53112 C 476.67193,424.67659 468.61631,422.30952 463.53503,427.38472 C 458.92495,442.27487 463.98626,462.34163 462.86288,475.03208 C 455.31722,475.29906 449.06817,475.06999 440.54554,474.83775 C 432.02291,474.6055 436.29992,467.46183 441.65981,466.8936 C 449.75451,463.72374 442.44663,454.28086 442.81754,448.20571 C 442.78215,438.51232 441.11794,428.66015 443.04335,419.06786 C 442.23392,412.61599 448.87041,408.55763 453.27134,405.33713 C 460.72388,405.59146 467.57367,402.49196 474.97547,402.93393 C 476.49342,402.94788 481.98579,403.07518 484.12507,402.83559 L 484.04384,397.99904"
             style="fill:none;fill-rule:evenodd;stroke:#000000;stroke-width:3.01707244;stroke-linecap:butt;stroke-linejoin:miter;stroke-miterlimit:4;stroke-dasharray:none;stroke-opacity:1;display:inline" />
          <path
             sodipodi:nodetypes="czcccc"
             id="path11665"
             d="M 504.65075,366.88885 C 503.21667,375.50029 498.02357,387.64127 496.91409,389.58176 C 495.80459,391.52224 488.44215,395.66289 485.40783,397.18314 C 482.52576,398.99493 479.77446,399.69045 477.02266,401.82155 L 476.59104,402.15294 L 476.17814,402.51121"
             style="fill:none;fill-rule:evenodd;stroke:#000000;stroke-width:3.01707244;stroke-linecap:butt;stroke-linejoin:miter;stroke-miterlimit:4;stroke-dasharray:none;stroke-opacity:1;display:inline" />
        </g>
      </g>
      <path
         inkscape:export-ydpi="90"
         inkscape:export-xdpi="90"
         inkscape:export-filename="/Users/awagner/svn_faces/latex/motiontest2.png"
         sodipodi:nodetypes="ccccccc"
         id="path11739"
         d="M 719.90625,608.5731 L 925.76562,511.94031 L 901.30469,620.9247 L 812.42187,634.245 L 895.25,622.8622 L 914.38281,511.21375 L 719.90625,608.5731 z"
         style="fill:none;fill-opacity:1;stroke:#000000;stroke-width:2;stroke-miterlimit:4;stroke-dasharray:none;display:inline" />
      <path
         inkscape:export-ydpi="90"
         inkscape:export-xdpi="90"
         inkscape:export-filename="/Users/awagner/svn_faces/latex/motiontest2.png"
         id="path11769"
         d="M 924.3125,553.1122 C 922.75178,562.3783 914.625,578.8539 914.625,591.8622"
         style="fill:none;fill-opacity:1;stroke:#000000;stroke-width:2;stroke-miterlimit:4;stroke-dasharray:none;display:inline" />
      <path
         inkscape:export-ydpi="90"
         inkscape:export-xdpi="90"
         inkscape:export-filename="/Users/awagner/svn_faces/latex/motiontest2.png"
         id="path11773"
         d="M 936.90625,574.4247 C 939.56547,573.2236 934.78878,583.8633 934,587.0184"
         style="fill:none;fill-opacity:1;stroke:#000000;stroke-width:2;stroke-miterlimit:4;stroke-dasharray:none;display:inline" />
      <path
         inkscape:export-ydpi="90"
         inkscape:export-xdpi="90"
         inkscape:export-filename="/Users/awagner/svn_faces/latex/motiontest2.png"
         id="path11759"
         d="M 801.76562,585.0809 C 804.3141,584.0615 806.42731,582.0739 809.03125,581.2059"
         style="fill:none;fill-opacity:1;stroke:#000000;stroke-width:2;stroke-miterlimit:4;stroke-dasharray:none;display:inline" />
      <path
         inkscape:export-ydpi="90"
         inkscape:export-xdpi="90"
         inkscape:export-filename="/Users/awagner/svn_faces/latex/motiontest2.png"
         id="path11761"
         d="M 807.09375,588.9559 C 810.79953,587.4736 802.17398,591.9078 809.51562,587.5028"
         style="fill:none;fill-opacity:1;stroke:#000000;stroke-width:2;stroke-miterlimit:4;stroke-dasharray:none;display:inline" />
      <path
         inkscape:export-ydpi="90"
         inkscape:export-xdpi="90"
         inkscape:export-filename="/Users/awagner/svn_faces/latex/motiontest2.png"
         id="path11771"
         d="M 931.09375,565.7059 C 932.4684,568.8212 926.7237,580.2799 925.28125,586.0497"
         style="fill:none;fill-opacity:1;stroke:#000000;stroke-width:2;stroke-miterlimit:4;stroke-dasharray:none;display:inline" />
      <path
         inkscape:export-ydpi="90"
         inkscape:export-xdpi="90"
         inkscape:export-filename="/Users/awagner/svn_faces/latex/motiontest2.png"
         id="path11757"
         d="M 791.59375,582.1747 C 797.17104,579.9438 805.63667,575.717 813.39062,574.4247"
         style="fill:none;fill-opacity:1;stroke:#000000;stroke-width:2;stroke-miterlimit:4;stroke-dasharray:none;display:inline" />
    </g>
  </g>
</svg>
