<?xml version="1.0" encoding="UTF-8" standalone="no"?>
<!-- Created with Inkscape (http://www.inkscape.org/) -->
<svg
   xmlns:dc="http://purl.org/dc/elements/1.1/"
   xmlns:cc="http://creativecommons.org/ns#"
   xmlns:rdf="http://www.w3.org/1999/02/22-rdf-syntax-ns#"
   xmlns:svg="http://www.w3.org/2000/svg"
   xmlns="http://www.w3.org/2000/svg"
   xmlns:sodipodi="http://sodipodi.sourceforge.net/DTD/sodipodi-0.dtd"
   xmlns:inkscape="http://www.inkscape.org/namespaces/inkscape"
   id="svg5446"
   sodipodi:version="0.32"
   inkscape:version="0.46"
   width="269.4931"
   height="211.67928"
   xml:space="preserve"
   sodipodi:docname="bouqet.svg"
   version="1.0"
   inkscape:output_extension="org.inkscape.output.svg.inkscape"><metadata
     id="metadata5451"><rdf:RDF><cc:Work
         rdf:about=""><dc:format>image/svg+xml</dc:format><dc:type
           rdf:resource="http://purl.org/dc/dcmitype/StillImage" /></cc:Work></rdf:RDF></metadata><defs
     id="defs5449"><inkscape:perspective
       sodipodi:type="inkscape:persp3d"
       inkscape:vp_x="0 : 526.18109 : 1"
       inkscape:vp_y="0 : 1000 : 0"
       inkscape:vp_z="744.09448 : 526.18109 : 1"
       inkscape:persp3d-origin="372.04724 : 350.78739 : 1"
       id="perspective5453" /><clipPath
       clipPathUnits="userSpaceOnUse"
       id="clipPath5463"><path
         d="M 0,0 L 612,0 L 612,792 L 0,792 L 0,0 z"
         id="path5465" /></clipPath><clipPath
       clipPathUnits="userSpaceOnUse"
       id="clipPath5475"><path
         d="M 143.997,546.901 L 468.0652,546.901 L 468.0652,720.0896 L 143.997,720.0896 L 143.997,546.901 z"
         id="path5477" /></clipPath><clipPath
       clipPathUnits="userSpaceOnUse"
       id="clipPath5607"><path
         d="M 143.997,720.0896 L 143.997,546.901 L 468.0652,546.901 L 468.0652,720.0896 L 143.997,720.0896 z M 277.6634,697.1577 L 275.9726,698.4263 L 272.7665,694.1636 L 276.1487,696.9117 L 274.4579,692.8961 L 277.6634,697.1577 z"
         clip-rule="evenodd"
         id="path5609" /></clipPath><clipPath
       clipPathUnits="userSpaceOnUse"
       id="clipPath5613"><path
         d="M 143.997,546.901 L 468.0652,546.901 L 468.0652,720.0896 L 143.997,720.0896 L 143.997,546.901 z"
         id="path5615" /></clipPath><clipPath
       clipPathUnits="userSpaceOnUse"
       id="clipPath5625"><path
         d="M 143.997,546.901 L 468.0652,546.901 L 468.0652,720.0896 L 143.997,720.0896 L 143.997,546.901 z"
         id="path5627" /></clipPath><clipPath
       clipPathUnits="userSpaceOnUse"
       id="clipPath5639"><path
         d="M 143.997,720.0896 L 143.997,546.901 L 468.0652,546.901 L 468.0652,720.0896 L 143.997,720.0896 z M 282.9119,697.123 L 281.2915,698.4616 L 277.91,694.4107 L 281.4324,696.9469 L 279.5303,693.0369 L 282.9119,697.123 z"
         clip-rule="evenodd"
         id="path5641" /></clipPath><clipPath
       clipPathUnits="userSpaceOnUse"
       id="clipPath5645"><path
         d="M 143.997,546.901 L 468.0652,546.901 L 468.0652,720.0896 L 143.997,720.0896 L 143.997,546.901 z"
         id="path5647" /></clipPath><clipPath
       clipPathUnits="userSpaceOnUse"
       id="clipPath5657"><path
         d="M 143.997,546.901 L 468.0652,546.901 L 468.0652,720.0896 L 143.997,720.0896 L 143.997,546.901 z"
         id="path5659" /></clipPath><clipPath
       clipPathUnits="userSpaceOnUse"
       id="clipPath5671"><path
         d="M 143.997,720.0896 L 143.997,546.901 L 468.0652,546.901 L 468.0652,720.0896 L 143.997,720.0896 z M 282.9119,691.7689 L 281.3268,693.2131 L 277.7691,689.2679 L 281.3966,691.6632 L 279.3189,687.8589 L 282.9119,691.7689 z"
         clip-rule="evenodd"
         id="path5673" /></clipPath><clipPath
       clipPathUnits="userSpaceOnUse"
       id="clipPath5677"><path
         d="M 143.997,546.901 L 468.0652,546.901 L 468.0652,720.0896 L 143.997,720.0896 L 143.997,546.901 z"
         id="path5679" /></clipPath><clipPath
       clipPathUnits="userSpaceOnUse"
       id="clipPath5689"><path
         d="M 143.997,546.901 L 468.0652,546.901 L 468.0652,720.0896 L 143.997,720.0896 L 143.997,546.901 z"
         id="path5691" /></clipPath><clipPath
       clipPathUnits="userSpaceOnUse"
       id="clipPath5703"><path
         d="M 143.997,720.0896 L 143.997,546.901 L 468.0652,546.901 L 468.0652,720.0896 L 143.997,720.0896 z M 288.1604,691.7336 L 286.6803,693.2131 L 282.9119,689.4792 L 286.6803,691.6978 L 284.4265,687.9646 L 288.1604,691.7336 z"
         clip-rule="evenodd"
         id="path5705" /></clipPath><clipPath
       clipPathUnits="userSpaceOnUse"
       id="clipPath5709"><path
         d="M 143.997,546.901 L 468.0652,546.901 L 468.0652,720.0896 L 143.997,720.0896 L 143.997,546.901 z"
         id="path5711" /></clipPath><clipPath
       clipPathUnits="userSpaceOnUse"
       id="clipPath5721"><path
         d="M 143.997,546.901 L 468.0652,546.901 L 468.0652,720.0896 L 143.997,720.0896 L 143.997,546.901 z"
         id="path5723" /></clipPath><clipPath
       clipPathUnits="userSpaceOnUse"
       id="clipPath5735"><path
         d="M 143.997,720.0896 L 143.997,546.901 L 468.0652,546.901 L 468.0652,720.0896 L 143.997,720.0896 z M 285.5537,697.0878 L 283.9686,698.4968 L 280.4461,694.4812 L 284.0385,696.9469 L 282.0312,693.0722 L 285.5537,697.0878 z"
         clip-rule="evenodd"
         id="path5737" /></clipPath><clipPath
       clipPathUnits="userSpaceOnUse"
       id="clipPath5741"><path
         d="M 143.997,546.901 L 468.0652,546.901 L 468.0652,720.0896 L 143.997,720.0896 L 143.997,546.901 z"
         id="path5743" /></clipPath><clipPath
       clipPathUnits="userSpaceOnUse"
       id="clipPath5753"><path
         d="M 143.997,546.901 L 468.0652,546.901 L 468.0652,720.0896 L 143.997,720.0896 L 143.997,546.901 z"
         id="path5755" /></clipPath><clipPath
       clipPathUnits="userSpaceOnUse"
       id="clipPath5767"><path
         d="M 143.997,720.0896 L 143.997,546.901 L 468.0652,546.901 L 468.0652,720.0896 L 143.997,720.0896 z M 282.9119,699.7649 L 281.2563,701.1035 L 277.9452,696.9469 L 281.4324,699.5535 L 279.6007,695.6083 L 282.9119,699.7649 z"
         clip-rule="evenodd"
         id="path5769" /></clipPath><clipPath
       clipPathUnits="userSpaceOnUse"
       id="clipPath5773"><path
         d="M 143.997,546.901 L 468.0652,546.901 L 468.0652,720.0896 L 143.997,720.0896 L 143.997,546.901 z"
         id="path5775" /></clipPath><clipPath
       clipPathUnits="userSpaceOnUse"
       id="clipPath5785"><path
         d="M 143.997,546.901 L 468.0652,546.901 L 468.0652,720.0896 L 143.997,720.0896 L 143.997,546.901 z"
         id="path5787" /></clipPath><clipPath
       clipPathUnits="userSpaceOnUse"
       id="clipPath5799"><path
         d="M 143.997,720.0896 L 143.997,546.901 L 468.0652,546.901 L 468.0652,720.0896 L 143.997,720.0896 z M 288.1956,694.4107 L 286.6457,695.8549 L 282.9818,692.0154 L 286.6803,694.3051 L 284.497,690.536 L 288.1956,694.4107 z"
         clip-rule="evenodd"
         id="path5801" /></clipPath><clipPath
       clipPathUnits="userSpaceOnUse"
       id="clipPath5805"><path
         d="M 143.997,546.901 L 468.0652,546.901 L 468.0652,720.0896 L 143.997,720.0896 L 143.997,546.901 z"
         id="path5807" /></clipPath><clipPath
       clipPathUnits="userSpaceOnUse"
       id="clipPath5817"><path
         d="M 143.997,546.901 L 468.0652,546.901 L 468.0652,720.0896 L 143.997,720.0896 L 143.997,546.901 z"
         id="path5819" /></clipPath><clipPath
       clipPathUnits="userSpaceOnUse"
       id="clipPath5879"><path
         d="M 143.997,720.0896 L 143.997,546.901 L 468.0652,546.901 L 468.0652,720.0896 L 143.997,720.0896 z M 281.8551,700.8563 L 280.1996,702.1602 L 276.9589,697.8979 L 280.3757,700.6103 L 278.6497,696.6293 L 281.8551,700.8563 z"
         clip-rule="evenodd"
         id="path5881" /></clipPath><clipPath
       clipPathUnits="userSpaceOnUse"
       id="clipPath5885"><path
         d="M 143.997,546.901 L 468.0652,546.901 L 468.0652,720.0896 L 143.997,720.0896 L 143.997,546.901 z"
         id="path5887" /></clipPath><clipPath
       clipPathUnits="userSpaceOnUse"
       id="clipPath5897"><path
         d="M 143.997,546.901 L 468.0652,546.901 L 468.0652,720.0896 L 143.997,720.0896 L 143.997,546.901 z"
         id="path5899" /></clipPath><clipPath
       clipPathUnits="userSpaceOnUse"
       id="clipPath5911"><path
         d="M 143.997,720.0896 L 143.997,546.901 L 468.0652,546.901 L 468.0652,720.0896 L 143.997,720.0896 z M 283.9334,688.5634 L 282.4187,690.0428 L 278.7201,686.2034 L 282.4534,688.493 L 280.2348,684.7592 L 283.9334,688.5634 z"
         clip-rule="evenodd"
         id="path5913" /></clipPath><clipPath
       clipPathUnits="userSpaceOnUse"
       id="clipPath5917"><path
         d="M 143.997,546.901 L 468.0652,546.901 L 468.0652,720.0896 L 143.997,720.0896 L 143.997,546.901 z"
         id="path5919" /></clipPath><clipPath
       clipPathUnits="userSpaceOnUse"
       id="clipPath5929"><path
         d="M 143.997,546.901 L 468.0652,546.901 L 468.0652,720.0896 L 143.997,720.0896 L 143.997,546.901 z"
         id="path5931" /></clipPath><clipPath
       clipPathUnits="userSpaceOnUse"
       id="clipPath5953"><path
         d="M 0,0 L 612,0 L 612,792 L 0,792 L 0,0 z"
         id="path5955" /></clipPath></defs><sodipodi:namedview
     inkscape:window-height="1236"
     inkscape:window-width="1426"
     inkscape:pageshadow="2"
     inkscape:pageopacity="0.0"
     guidetolerance="10.0"
     gridtolerance="10.0"
     objecttolerance="10.0"
     borderopacity="1.0"
     bordercolor="#666666"
     pagecolor="#ffffff"
     id="base"
     showgrid="false"
     inkscape:zoom="2.0342546"
     inkscape:cx="127.07925"
     inkscape:cy="41.406903"
     inkscape:window-x="265"
     inkscape:window-y="42"
     inkscape:current-layer="g5455" /><g
     id="g5455"
     inkscape:groupmode="layer"
     inkscape:label="bouqet"
     transform="matrix(1.25,0,0,-1.25,-93.586681,912.15884)"><path
       id="path5585"
       style="fill:none;stroke:#000000;stroke-width:0.52837199;stroke-linecap:butt;stroke-linejoin:miter;stroke-miterlimit:10;stroke-dasharray:none;stroke-opacity:1"
       d="M 159.5412,719.02754 L 138.40632,634.48802 L 159.5412,571.08318" /><path
       id="path5589"
       style="fill:none;stroke:#000000;stroke-width:0.52837199;stroke-linecap:butt;stroke-linejoin:miter;stroke-miterlimit:10;stroke-dasharray:none;stroke-opacity:1"
       d="M 85.568882,645.05546 L 138.40632,634.48802 L 233.51328,645.05546" /><path
       id="path5593"
       style="fill:none;stroke:#000000;stroke-width:0.26418599;stroke-linecap:butt;stroke-linejoin:miter;stroke-miterlimit:10;stroke-dasharray:2.113488, 1.056744, 0.528372, 1.056744;stroke-dashoffset:0;stroke-opacity:1"
       d="M 75.001438,645.05546 L 244.08072,645.05546" /><path
       id="path5597"
       style="fill:none;stroke:#000000;stroke-width:0.26418599;stroke-linecap:butt;stroke-linejoin:miter;stroke-miterlimit:10;stroke-dasharray:2.113488, 1.056744, 0.528372, 1.056744;stroke-dashoffset:0;stroke-opacity:1"
       d="M 159.5412,729.59498 L 159.5412,560.51574" /><path
       id="path5601"
       style="fill:none;stroke:#000000;stroke-width:0.26418599;stroke-linecap:butt;stroke-linejoin:miter;stroke-miterlimit:10;stroke-dasharray:2.113488, 1.056744, 0.528372, 1.056744;stroke-dashoffset:0;stroke-opacity:1"
       d="M 117.2712,623.92058 L 222.94584,676.75778" /><g
       transform="matrix(5.8708e-2,0,0,5.8708e-2,74.590721,557.9915)"
       id="g5617"><path
         id="path5619"
         style="fill:none;stroke:#000000;stroke-width:4.5;stroke-linecap:butt;stroke-linejoin:miter;stroke-miterlimit:10;stroke-dasharray:none;stroke-opacity:1"
         d="M 1447,1483 L 2257,2563" /></g><path
       d="M 205.05162,703.9866 L 206.74242,708.0022 L 203.36022,705.2541 L 205.05162,703.9866"
       style="fill:#000000;fill-opacity:1;fill-rule:evenodd;stroke:none"
       id="path5629" /><path
       id="path5633"
       style="fill:none;stroke:#000000;stroke-width:0.26418599;stroke-linecap:butt;stroke-linejoin:miter;stroke-miterlimit:10;stroke-dasharray:none;stroke-opacity:1"
       d="M 205.05164,703.98655 L 206.74243,708.00218 L 203.36026,705.25406 L 205.05164,703.98655 z" /><g
       transform="matrix(5.8708e-2,0,0,5.8708e-2,74.590721,557.9915)"
       id="g5649"><path
         id="path5651"
         style="fill:none;stroke:#000000;stroke-width:4.5;stroke-linecap:butt;stroke-linejoin:miter;stroke-miterlimit:10;stroke-dasharray:none;stroke-opacity:1"
         d="M 1447,1483 L 2347,2563" /></g><path
       d="M 210.12402,704.1274 L 212.02612,708.0374 L 208.50372,705.5012 L 210.12402,704.1274"
       style="fill:#000000;fill-opacity:1;fill-rule:evenodd;stroke:none"
       id="path5661" /><path
       id="path5665"
       style="fill:none;stroke:#000000;stroke-width:0.26418599;stroke-linecap:butt;stroke-linejoin:miter;stroke-miterlimit:10;stroke-dasharray:none;stroke-opacity:1"
       d="M 210.12401,704.12745 L 212.02615,708.03741 L 208.50367,705.50122 L 210.12401,704.12745 z" /><g
       transform="matrix(5.8708e-2,0,0,5.8708e-2,74.590721,557.9915)"
       id="g5681"><path
         id="path5683"
         style="fill:none;stroke:#000000;stroke-width:4.5;stroke-linecap:butt;stroke-linejoin:miter;stroke-miterlimit:10;stroke-dasharray:none;stroke-opacity:1"
         d="M 1447,1483 L 2347,2473" /></g><path
       d="M 209.91262,698.9494 L 211.99032,702.7537 L 208.36282,700.3584 L 209.91262,698.9494"
       style="fill:#000000;fill-opacity:1;fill-rule:evenodd;stroke:none"
       id="path5693" /><path
       id="path5697"
       style="fill:none;stroke:#000000;stroke-width:0.26418599;stroke-linecap:butt;stroke-linejoin:miter;stroke-miterlimit:10;stroke-dasharray:none;stroke-opacity:1"
       d="M 209.91266,698.94941 L 211.99028,702.7538 L 208.36277,700.3584 L 209.91266,698.94941 z" /><g
       transform="matrix(5.8708e-2,0,0,5.8708e-2,74.590721,557.9915)"
       id="g5713"><path
         id="path5715"
         style="fill:none;stroke:#000000;stroke-width:4.5;stroke-linecap:butt;stroke-linejoin:miter;stroke-miterlimit:10;stroke-dasharray:none;stroke-opacity:1"
         d="M 1447,1483 L 2437,2473" /></g><path
       d="M 215.02022,699.0551 L 217.27402,702.7883 L 213.50562,700.5697 L 215.02022,699.0551"
       style="fill:#000000;fill-opacity:1;fill-rule:evenodd;stroke:none"
       id="path5725" /><path
       id="path5729"
       style="fill:none;stroke:#000000;stroke-width:0.26418599;stroke-linecap:butt;stroke-linejoin:miter;stroke-miterlimit:10;stroke-dasharray:none;stroke-opacity:1"
       d="M 215.02026,699.05508 L 217.27406,702.78832 L 213.50559,700.56975 L 215.02026,699.05508 z" /><g
       transform="matrix(5.8708e-2,0,0,5.8708e-2,74.590721,557.9915)"
       id="g5745"><path
         id="path5747"
         style="fill:none;stroke:#000000;stroke-width:4.5;stroke-linecap:butt;stroke-linejoin:miter;stroke-miterlimit:10;stroke-dasharray:none;stroke-opacity:1"
         d="M 1447,1483 L 2392,2563" /></g><path
       d="M 212.62492,704.1627 L 214.63222,708.0374 L 211.03982,705.5717 L 212.62492,704.1627"
       style="fill:#000000;fill-opacity:1;fill-rule:evenodd;stroke:none"
       id="path5757" /><path
       id="path5761"
       style="fill:none;stroke:#000000;stroke-width:0.26418599;stroke-linecap:butt;stroke-linejoin:miter;stroke-miterlimit:10;stroke-dasharray:none;stroke-opacity:1"
       d="M 212.62497,704.1628 L 214.6322,708.03741 L 211.03985,705.57179 L 212.62497,704.1628 z" /><g
       transform="matrix(5.8708e-2,0,0,5.8708e-2,74.590721,557.9915)"
       id="g5777"><path
         id="path5779"
         style="fill:none;stroke:#000000;stroke-width:4.5;stroke-linecap:butt;stroke-linejoin:miter;stroke-miterlimit:10;stroke-dasharray:none;stroke-opacity:1"
         d="M 1447,1483 L 2347,2608" /></g><path
       d="M 210.19442,706.6988 L 212.02612,710.644 L 208.53892,708.0374 L 210.19442,706.6988"
       style="fill:#000000;fill-opacity:1;fill-rule:evenodd;stroke:none"
       id="path5789" /><path
       id="path5793"
       style="fill:none;stroke:#000000;stroke-width:0.26418599;stroke-linecap:butt;stroke-linejoin:miter;stroke-miterlimit:10;stroke-dasharray:none;stroke-opacity:1"
       d="M 210.19446,706.69886 L 212.02615,710.64404 L 208.53889,708.03741 L 210.19446,706.69886 z" /><g
       transform="matrix(5.8708e-2,0,0,5.8708e-2,74.590721,557.9915)"
       id="g5809"><path
         id="path5811"
         style="fill:none;stroke:#000000;stroke-width:4.5;stroke-linecap:butt;stroke-linejoin:miter;stroke-miterlimit:10;stroke-dasharray:none;stroke-opacity:1"
         d="M 1447,1483 L 2437,2518" /></g><path
       d="M 215.09072,701.6265 L 217.27402,705.3956 L 213.57552,703.1059 L 215.09072,701.6265"
       style="fill:#000000;fill-opacity:1;fill-rule:evenodd;stroke:none"
       id="path5821" /><path
       id="path5825"
       style="fill:none;stroke:#000000;stroke-width:0.26418599;stroke-linecap:butt;stroke-linejoin:miter;stroke-miterlimit:10;stroke-dasharray:none;stroke-opacity:1"
       d="M 215.09071,701.62649 L 217.27406,705.39555 L 213.57545,703.10593 L 215.09071,701.62649 z" /><path
       id="path5865"
       style="fill:none;stroke:#000000;stroke-width:0.52837199;stroke-linecap:butt;stroke-linejoin:miter;stroke-miterlimit:10;stroke-dasharray:none;stroke-opacity:1"
       d="M 159.5412,719.02754 L 85.568882,645.05546 L 159.5412,571.08318 L 233.51328,645.05546" /><path
       id="path5869"
       style="fill:none;stroke:#000000;stroke-width:0.52837199;stroke-linecap:butt;stroke-linejoin:miter;stroke-miterlimit:10;stroke-dasharray:none;stroke-opacity:1"
       d="M 159.5412,719.02754 L 191.24352,687.32522" /><path
       id="path5873"
       style="fill:none;stroke:#000000;stroke-width:0.52837199;stroke-linecap:butt;stroke-linejoin:miter;stroke-miterlimit:10;stroke-dasharray:none;stroke-opacity:1"
       d="M 233.51328,645.05546 L 196.52724,682.0415" /><g
       transform="matrix(5.8708e-2,0,0,5.8708e-2,74.590721,557.9915)"
       id="g5889"><path
         id="path5891"
         style="fill:none;stroke:#000000;stroke-width:4.5;stroke-linecap:butt;stroke-linejoin:miter;stroke-miterlimit:10;stroke-dasharray:none;stroke-opacity:1"
         d="M 1456,1474 L 2329,2626" /></g><path
       d="M 209.24342,707.7198 L 210.96942,711.7008 L 207.55262,708.9884 L 209.24342,707.7198"
       style="fill:#000000;fill-opacity:1;fill-rule:evenodd;stroke:none"
       id="path5901" /><path
       id="path5905"
       style="fill:none;stroke:#000000;stroke-width:0.26418599;stroke-linecap:butt;stroke-linejoin:miter;stroke-miterlimit:10;stroke-dasharray:none;stroke-opacity:1"
       d="M 209.24339,707.7198 L 210.96941,711.70079 L 207.5526,708.98848 L 209.24339,707.7198 z" /><g
       transform="matrix(5.8708e-2,0,0,5.8708e-2,74.590721,557.9915)"
       id="g5921"><path
         id="path5923"
         style="fill:none;stroke:#000000;stroke-width:4.5;stroke-linecap:butt;stroke-linejoin:miter;stroke-miterlimit:10;stroke-dasharray:none;stroke-opacity:1"
         d="M 1447,1474 L 2365,2419" /></g><path
       d="M 210.82852,695.8497 L 213.04712,699.5835 L 209.31382,697.2939 L 210.82852,695.8497"
       style="fill:#000000;fill-opacity:1;fill-rule:evenodd;stroke:none"
       id="path5933" /><path
       id="path5937"
       style="fill:none;stroke:#000000;stroke-width:0.26418599;stroke-linecap:butt;stroke-linejoin:miter;stroke-miterlimit:10;stroke-dasharray:none;stroke-opacity:1"
       d="M 210.82851,695.84974 L 213.04708,699.58357 L 209.31384,697.29396 L 210.82851,695.84974 z" /><text
       xml:space="preserve"
       style="font-size:13.75830936px;font-style:normal;font-variant:normal;font-weight:normal;font-stretch:normal;fill:#000000;fill-opacity:1;stroke:none;stroke-width:1px;stroke-linecap:butt;stroke-linejoin:miter;stroke-opacity:1;font-family:Times New Roman;-inkscape-font-specification:Times New Roman"
       x="191.14325"
       y="-584.98718"
       id="text7634"
       transform="scale(1,-1)"><tspan
         sodipodi:role="line"
         id="tspan7636"
         x="191.14325"
         y="-584.98718">(Image Space)</tspan></text>
<text
       xml:space="preserve"
       style="font-size:13.75830936px;font-style:normal;font-variant:normal;font-weight:normal;font-stretch:normal;fill:#000000;fill-opacity:1;stroke:none;stroke-width:1px;stroke-linecap:butt;stroke-linejoin:miter;stroke-opacity:1;font-family:Times New Roman;-inkscape-font-specification:Times New Roman"
       x="225.61571"
       y="-701.93304"
       id="text7638"
       transform="scale(1,-1)"><tspan
         sodipodi:role="line"
         id="tspan7640"
         x="225.61571"
         y="-701.93304">face images</tspan></text>
</g></svg>