<?xml version="1.0" encoding="UTF-8" standalone="no"?>
<!-- Created with Inkscape (http://www.inkscape.org/) -->
<svg
   xmlns:ns0="http://www.iki.fi/pav/software/textext/"
   xmlns:dc="http://purl.org/dc/elements/1.1/"
   xmlns:cc="http://creativecommons.org/ns#"
   xmlns:rdf="http://www.w3.org/1999/02/22-rdf-syntax-ns#"
   xmlns:svg="http://www.w3.org/2000/svg"
   xmlns="http://www.w3.org/2000/svg"
   xmlns:sodipodi="http://sodipodi.sourceforge.net/DTD/sodipodi-0.dtd"
   xmlns:inkscape="http://www.inkscape.org/namespaces/inkscape"
   width="148.82983"
   height="138.27225"
   id="svg3244"
   sodipodi:version="0.32"
   inkscape:version="0.46"
   sodipodi:docname="integration_trapezoid.svg"
   inkscape:output_extension="org.inkscape.output.svg.inkscape"
   version="1.0">
  <sodipodi:namedview
     id="base"
     pagecolor="#ffffff"
     bordercolor="#666666"
     borderopacity="1.0"
     gridtolerance="10000"
     guidetolerance="10"
     objecttolerance="10"
     inkscape:pageopacity="0.0"
     inkscape:pageshadow="2"
     inkscape:zoom="4.3444641"
     inkscape:cx="52.622058"
     inkscape:cy="64.74471"
     inkscape:document-units="px"
     inkscape:current-layer="layer2"
     showgrid="false"
     inkscape:snap-global="false"
     inkscape:window-width="1657"
     inkscape:window-height="974"
     inkscape:window-x="-11"
     inkscape:window-y="0">
    <inkscape:grid
       enabled="true"
       visible="true"
       id="grid3318"
       type="xygrid" />
  </sodipodi:namedview>
  <defs
     id="defs3246">
    <marker
       style="overflow:visible"
       id="Arrow1Mend"
       refX="0"
       refY="0"
       orient="auto"
       inkscape:stockid="Arrow1Mend">
      <path
         transform="matrix(-0.4,0,0,-0.4,-4,0)"
         style="fill-rule:evenodd;stroke:#000000;stroke-width:1pt;marker-start:none"
         d="M 0,0 L 5,-5 L -12.5,0 L 5,5 L 0,0 z"
         id="path3203" />
    </marker>
    <inkscape:perspective
       id="perspective3252"
       inkscape:persp3d-origin="372.04724 : 350.78739 : 1"
       inkscape:vp_z="744.09448 : 526.18109 : 1"
       inkscape:vp_y="0 : 1000 : 0"
       inkscape:vp_x="0 : 526.18109 : 1"
       sodipodi:type="inkscape:persp3d" />
  </defs>
  <metadata
     id="metadata3249">
    <rdf:RDF>
      <cc:Work
         rdf:about="">
        <dc:format>image/svg+xml</dc:format>
        <dc:type
           rdf:resource="http://purl.org/dc/dcmitype/StillImage" />
      </cc:Work>
    </rdf:RDF>
  </metadata>
  <g
     inkscape:label="Fills"
     id="layer3"
     inkscape:groupmode="layer"
     transform="translate(0,9.8494902)"
     style="display:inline">
    <path
       style="fill:#999999;fill-rule:nonzero;stroke:#999999;stroke-width:0;stroke-linejoin:miter;stroke-miterlimit:4;stroke-dasharray:none;stroke-opacity:1"
       d="M 29.377734,39.904626 C 23.111761,43.436053 16.884862,47.081865 10.727814,50.806632 C 10.051143,52.585017 10.627949,54.741258 10.436539,56.66542 C 10.436539,71.268004 10.436539,85.870591 10.436539,100.47317 C 11.356119,101.78854 13.595299,100.78176 15.055328,101.09734 C 20.100224,101.02561 25.204911,101.24042 30.212689,100.99083 C 31.059105,99.735601 30.368831,97.751832 30.592767,96.212238 C 30.51885,78.054116 30.751149,59.891319 30.44982,41.736115 C 30.42536,41.008491 30.380455,39.718024 29.377734,39.904626 z"
       id="path8920"
       transform="translate(0,-9.8494902)" />
    <path
       style="fill:#999999;fill-rule:nonzero;stroke:#999999;stroke-width:0;stroke-linejoin:miter;stroke-miterlimit:4;stroke-dasharray:none;stroke-opacity:1"
       d="M 30.584445,39.446909 C 30.17838,43.522167 30.524906,47.741091 30.40968,51.871866 C 30.40968,68.072302 30.40968,84.27274 30.40968,100.47317 C 31.329259,101.78854 33.56844,100.78176 35.028469,101.09734 C 40.073364,101.02561 45.178052,101.24042 50.185829,100.99083 C 51.032246,99.735601 50.341971,97.751832 50.565907,96.212238 C 50.565907,77.659409 50.565907,59.106583 50.565907,40.553753 C 49.778422,39.308409 47.739689,40.14726 46.431393,39.812606 C 41.230398,39.70032 35.98172,39.299035 30.810362,39.359714 L 30.584445,39.446909 z"
       id="path8922"
       transform="translate(0,-9.8494902)" />
    <path
       style="fill:#999999;fill-rule:nonzero;stroke:#999999;stroke-width:0;stroke-linejoin:miter;stroke-miterlimit:4;stroke-dasharray:none;stroke-opacity:1"
       d="M 50.885366,41.291114 C 50.20001,43.257281 50.8727,46.255904 50.665773,48.326634 C 50.632817,65.706563 50.464939,83.085848 50.291277,100.46485 C 51.198145,101.79511 53.450737,100.77939 54.910065,101.09734 C 59.985525,101.02586 65.120601,101.24006 70.158959,100.99083 C 71.005394,99.735601 70.315122,97.751832 70.539061,96.212238 C 70.483749,86.819768 70.649286,77.392251 70.456612,68.021583 C 64.352176,59.323944 58.303324,50.548563 51.964027,42.01845 C 51.63401,41.795462 51.21528,41.076906 50.885366,41.291114 z"
       id="path8924"
       transform="translate(0,-9.8494902)"
       sodipodi:nodetypes="ccccccccc" />
    <path
       style="fill:#999999;fill-rule:nonzero;stroke:#999999;stroke-width:0;stroke-linejoin:miter;stroke-miterlimit:4;stroke-dasharray:none;stroke-opacity:1"
       d="M 70.788699,71.82004 C 70.119013,74.010495 70.576318,76.469766 70.386626,78.752329 C 70.403031,86.066679 70.223432,93.439881 70.462471,100.71726 C 71.71769,101.56367 73.701475,100.8734 75.241058,101.09734 C 77.86686,100.95849 80.607894,101.37178 83.163737,100.8976 C 83.358302,99.294696 82.00865,97.769171 81.596591,96.188409 C 78.255751,88.266169 75.511388,80.090407 72.111933,72.202859 C 71.864239,71.721392 71.268747,71.397156 70.788699,71.82004 z"
       id="path8926"
       transform="translate(0,-9.8494902)" />
    <path
       style="fill:#999999;fill-rule:nonzero;stroke:#999999;stroke-width:0;stroke-linejoin:miter;stroke-miterlimit:4;stroke-dasharray:none;stroke-opacity:1"
       d="M 86.692383,100.98098 C 86.193362,101.01695 85.510085,100.86412 85.220989,101.39793 C 85.015693,101.94078 85.481055,102.42614 85.626292,102.92496 C 86.838786,105.71708 88.035312,108.51655 89.283689,111.29107 C 89.530184,111.78171 90.358224,111.76525 90.503112,111.20287 C 90.622018,110.17755 90.549551,109.13165 90.579748,108.09846 C 90.576165,105.91659 90.599959,103.73029 90.569269,101.55123 C 90.530966,101.02759 89.943078,100.91885 89.516287,100.97925 C 88.574987,100.98004 87.633678,100.97747 86.692383,100.98098 z"
       id="path8928"
       transform="translate(0,-9.8494902)" />
    <path
       style="fill:#999999;fill-rule:nonzero;stroke:#999999;stroke-width:0;stroke-linejoin:miter;stroke-miterlimit:4;stroke-dasharray:none;stroke-opacity:1"
       d="M 110.72572,101.05334 C 110.20367,101.39292 110.44938,102.08015 110.39319,102.5971 C 110.39319,111.97106 110.3932,121.34502 110.39319,130.71898 C 110.41006,131.21926 110.94441,131.43182 111.37835,131.32711 C 117.48534,131.12464 123.60117,130.94202 129.71256,130.78962 C 130.1691,130.87791 130.66964,130.55022 130.61021,130.05392 C 130.61021,120.57084 130.61021,111.08776 130.61021,101.60468 C 130.59396,101.11681 130.08166,100.90328 129.65398,100.97925 C 123.44219,100.97925 117.23041,100.97925 111.01862,100.97925 C 110.92099,101.00395 110.82335,101.02864 110.72572,101.05334 z"
       id="path8930"
       transform="translate(0,-9.8494902)" />
    <path
       style="fill:#999999;fill-rule:nonzero;stroke:#999999;stroke-width:0;stroke-linejoin:miter;stroke-miterlimit:4;stroke-dasharray:none;stroke-opacity:1"
       d="M 90.71201,101.05334 C 90.189815,101.39292 90.435902,102.08015 90.380054,102.5971 C 90.391195,106.26239 90.366288,109.93219 90.399893,113.59469 C 90.500556,114.13047 91.088925,114.35946 91.425777,114.7387 C 97.467755,120.04766 103.48148,125.38807 109.55067,130.66385 C 109.99176,130.98979 110.6298,130.58042 110.55818,130.05049 C 110.62398,120.56879 110.58569,111.08659 110.5965,101.60468 C 110.58025,101.11681 110.06795,100.90328 109.64027,100.97925 C 103.42848,100.97925 97.216696,100.97925 91.00491,100.97925 C 90.907277,101.00395 90.809643,101.02864 90.71201,101.05334 z"
       id="path8932"
       transform="translate(0,-9.8494902)" />
    <path
       style="fill:#999999;fill-rule:nonzero;stroke:#999999;stroke-width:0;stroke-linejoin:miter;stroke-miterlimit:4;stroke-dasharray:none;stroke-opacity:1"
       d="M 81.33912,94.256934 C 80.922942,94.452085 80.883115,94.952653 81.068008,95.33226 C 81.833853,97.189378 82.609328,99.045625 83.439116,100.87445 C 83.720985,101.36249 84.560264,101.32099 84.733238,100.76102 C 84.853153,100.31123 84.505162,99.922257 84.377172,99.51354 C 83.643284,97.859127 82.945388,96.184148 82.178226,94.548148 C 82.01363,94.253383 81.651764,94.131017 81.33912,94.256934 z"
       id="path8934"
       transform="translate(0,-9.8494902)" />
    <path
       style="fill:#999999;fill-rule:nonzero;stroke:#999999;stroke-width:0;stroke-linejoin:miter;stroke-miterlimit:4;stroke-dasharray:none;stroke-opacity:1"
       d="M 80.484621,92.04478 C 80.125417,92.151432 79.933912,92.587891 80.08938,92.927446 C 80.307738,93.47297 80.510867,94.026756 80.757395,94.559734 C 80.954602,94.919417 81.494761,94.989046 81.782946,94.699604 C 82.03228,94.490832 82.038383,94.11995 81.903102,93.844372 C 81.688711,93.333871 81.486705,92.814109 81.218941,92.328865 C 81.064649,92.089567 80.768064,91.961817 80.484621,92.04478 z"
       id="path8936"
       transform="translate(0,-9.8494902)" />
    <path
       style="fill:#999999;fill-rule:nonzero;stroke:#999999;stroke-width:0;stroke-linejoin:miter;stroke-miterlimit:4;stroke-dasharray:none;stroke-opacity:1"
       d="M 70.832297,70.068915 C 70.508229,70.177536 70.357309,70.527657 70.381067,70.849755 C 70.390457,71.200121 70.334735,71.562628 70.42155,71.903826 C 70.541962,72.236548 70.945147,72.386087 71.264132,72.255132 C 71.622763,72.29699 72.010544,72.053675 72.044378,71.677945 C 72.066878,71.326556 71.856742,71.017792 71.743517,70.697351 C 71.635866,70.422376 71.484443,70.10732 71.158941,70.054905 C 71.051134,70.014233 70.940719,70.055773 70.832297,70.068915 z"
       id="path8946"
       transform="translate(0,-9.8494902)" />
  </g>
  <g
     transform="translate(-44.5,-31.262696)"
     id="layer1"
     inkscape:groupmode="layer"
     inkscape:label="Lines"
     style="display:inline">
    <path
       sodipodi:nodetypes="cc"
       id="path2419"
       d="M 55,142.36218 L 55,42.362186"
       style="fill:none;fill-rule:evenodd;stroke:#000000;stroke-width:1;stroke-linecap:butt;stroke-linejoin:miter;marker-end:url(#Arrow1Mend);stroke-miterlimit:4;stroke-dasharray:none;stroke-opacity:1" />
    <path
       sodipodi:nodetypes="cc"
       id="path3969"
       d="M 45,132.36218 L 190,132.36218"
       style="fill:none;fill-rule:evenodd;stroke:#000000;stroke-width:1;stroke-linecap:butt;stroke-linejoin:miter;marker-end:url(#Arrow1Mend);stroke-miterlimit:4;stroke-dasharray:none;stroke-opacity:1" />
    <path
       sodipodi:nodetypes="cc"
       id="path3271"
       d="M 55,82.362183 C 132.97981,21.672778 105.53034,182.98089 175.26517,162.09701"
       style="fill:none;fill-rule:evenodd;stroke:#000000;stroke-width:1px;stroke-linecap:butt;stroke-linejoin:miter;stroke-opacity:1" />
    <path
       sodipodi:nodetypes="cc"
       id="path3320"
       d="M 75,132.36218 L 75,70.692723"
       style="fill:none;fill-rule:evenodd;stroke:#000000;stroke-width:1px;stroke-linecap:butt;stroke-linejoin:miter;stroke-opacity:1" />
    <path
       sodipodi:nodetypes="cc"
       id="path3324"
       d="M 95,132.05746 L 95.093774,71.273471"
       style="fill:none;fill-rule:evenodd;stroke:#000000;stroke-width:1px;stroke-linecap:butt;stroke-linejoin:miter;stroke-opacity:1" />
    <path
       sodipodi:nodetypes="ccc"
       id="path3326"
       d="M 115,131.90901 L 115,100.6036 L 115,99.342669"
       style="fill:none;fill-rule:evenodd;stroke:#000000;stroke-width:1px;stroke-linecap:butt;stroke-linejoin:miter;stroke-opacity:1" />
    <path
       sodipodi:nodetypes="cc"
       id="path3328"
       d="M 135,132.15327 L 135,145.20612"
       style="fill:none;fill-rule:evenodd;stroke:#000000;stroke-width:1px;stroke-linecap:butt;stroke-linejoin:miter;stroke-opacity:1" />
    <path
       sodipodi:nodetypes="ccc"
       id="path3330"
       d="M 155,132.36218 C 155,134.97527 155,137.58835 155,140.20144 L 155,162.64316"
       style="fill:none;fill-rule:evenodd;stroke:#000000;stroke-width:1px;stroke-linecap:butt;stroke-linejoin:miter;stroke-opacity:1" />
    <path
       sodipodi:nodetypes="cs"
       id="path3332"
       d="M 175,132.84472 L 175,162.57583"
       style="fill:none;fill-rule:evenodd;stroke:#000000;stroke-width:1px;stroke-linecap:butt;stroke-linejoin:miter;stroke-opacity:1" />
    <path
       id="path3374"
       d="M 55.107317,82.096876 L 74.977024,70.49991"
       style="fill:none;fill-rule:evenodd;stroke:#000000;stroke-width:1px;stroke-linecap:butt;stroke-linejoin:miter;stroke-opacity:1"
       sodipodi:nodetypes="cc" />
    <path
       sodipodi:nodetypes="cc"
       id="path3376"
       d="M 75.179048,70.526619 L 95.055811,71.208793"
       style="fill:none;fill-rule:evenodd;stroke:#000000;stroke-width:1px;stroke-linecap:butt;stroke-linejoin:miter;stroke-opacity:1" />
    <path
       id="path3378"
       d="M 114.99767,99.312378 L 95.117166,71.172681"
       style="fill:none;fill-rule:evenodd;stroke:#000000;stroke-width:1px;stroke-linecap:butt;stroke-linejoin:miter;stroke-opacity:1"
       sodipodi:nodetypes="cc" />
    <path
       id="path3380"
       d="M 134.99694,145.12654 L 114.88651,98.909225"
       style="fill:none;fill-rule:evenodd;stroke:#000000;stroke-width:1px;stroke-linecap:butt;stroke-linejoin:miter;stroke-opacity:1"
       sodipodi:nodetypes="cc" />
    <path
       sodipodi:nodetypes="cc"
       id="path3382"
       d="M 154.90891,162.58353 L 134.79161,144.84699"
       style="fill:none;fill-rule:evenodd;stroke:#000000;stroke-width:1px;stroke-linecap:butt;stroke-linejoin:miter;stroke-opacity:1" />
    <path
       sodipodi:nodetypes="cc"
       id="path3384"
       d="M 154.92537,162.50484 C 155.30083,162.50484 174.99339,161.90794 174.99339,161.90794"
       style="fill:none;fill-rule:evenodd;stroke:#000000;stroke-width:1px;stroke-linecap:butt;stroke-linejoin:miter;stroke-opacity:1" />
  </g>
  <g
     inkscape:label="Annotation"
     id="layer2"
     inkscape:groupmode="layer"
     transform="translate(0,9.8494902)"
     style="display:inline">
    <g
       ns0:preamble=""
       ns0:text="$u$"
       word-spacing="normal"
       letter-spacing="normal"
       font-size-adjust="none"
       font-stretch="normal"
       font-weight="normal"
       font-variant="normal"
       font-style="normal"
       fill-rule="even-odd"
       stroke-miterlimit="10.433"
       xml:space="preserve"
       transform="matrix(1,0,0,-1,-81.559614,794.19418)"
       id="content"
       style="font-style:normal;font-variant:normal;font-weight:normal;font-stretch:normal;letter-spacing:normal;word-spacing:normal;text-anchor:start;fill:none;fill-opacity:1;stroke:#000000;stroke-linecap:butt;stroke-linejoin:miter;stroke-miterlimit:10.43299961;stroke-dasharray:none;stroke-dashoffset:0;stroke-opacity:1;display:inline">
<path
   id="path3501"
   d="M 226.92,707.68 L 226.93,707.64 L 226.94,707.61 L 226.96,707.57 L 226.97,707.53 L 226.99,707.5 L 227.01,707.47 L 227.02,707.43 L 227.04,707.4 L 227.06,707.37 L 227.09,707.34 L 227.11,707.32 L 227.14,707.29 L 227.16,707.26 L 227.19,707.24 L 227.21,707.22 L 227.24,707.19 L 227.27,707.17 L 227.3,707.15 L 227.33,707.13 L 227.37,707.12 L 227.4,707.1 L 227.43,707.09 L 227.47,707.07 L 227.5,707.06 L 227.54,707.05 L 227.57,707.04 L 227.61,707.03 L 227.65,707.02 L 227.69,707.02 L 227.73,707.02 L 227.77,707.01 L 227.81,707.01 C 228.15,707.01 228.38,707.24 228.54,707.56 C 228.71,707.92 228.84,708.53 228.84,708.55 C 228.84,708.65 228.75,708.65 228.72,708.65 C 228.62,708.65 228.61,708.61 228.58,708.47 C 228.44,707.91 228.25,707.23 227.84,707.23 C 227.63,707.23 227.53,707.36 227.53,707.69 C 227.53,707.91 227.65,708.38 227.73,708.73 C 227.82,709.09 227.92,709.44 228.01,709.8 C 228.04,709.95 228.13,710.33 228.18,710.48 C 228.23,710.71 228.32,711.09 228.32,711.15 C 228.32,711.33 228.18,711.42 228.04,711.42 C 227.99,711.42 227.73,711.41 227.65,711.07 C 227.46,710.34 227.02,708.6 226.9,708.07 C 226.89,708.03 226.49,707.23 225.76,707.23 C 225.25,707.23 225.15,707.68 225.15,708.05 C 225.15,708.61 225.43,709.39 225.68,710.08 C 225.8,710.38 225.85,710.52 225.85,710.71 C 225.85,711.16 225.54,711.53 225.04,711.53 C 224.09,711.53 223.72,710.08 223.72,709.99 C 223.72,709.89 223.82,709.89 223.84,709.89 C 223.94,709.89 223.95,709.91 224,710.07 C 224.25,710.94 224.63,711.31 225.01,711.31 C 225.1,711.31 225.26,711.3 225.26,710.98 C 225.26,710.74 225.15,710.45 225.09,710.3 C 224.72,709.31 224.51,708.7 224.51,708.21 C 224.51,707.26 225.2,707.01 225.73,707.01 C 226.39,707.01 226.75,707.46 226.92,707.68 z"
   style="fill:#000000;stroke-width:0" />
</g>    <g
       style="font-style:normal;font-variant:normal;font-weight:normal;font-stretch:normal;letter-spacing:normal;word-spacing:normal;text-anchor:start;fill:none;fill-opacity:1;stroke:#000000;stroke-width:1.53184712;stroke-linecap:butt;stroke-linejoin:miter;stroke-miterlimit:10.43299961;stroke-dasharray:none;stroke-dashoffset:0;stroke-opacity:1;display:inline"
       ns0:preamble=""
       ns0:text="$u_{i+1}$"
       word-spacing="normal"
       letter-spacing="normal"
       font-size-adjust="none"
       font-stretch="normal"
       font-weight="normal"
       font-variant="normal"
       font-style="normal"
       fill-rule="even-odd"
       stroke-miterlimit="10.433"
       xml:space="preserve"
       transform="matrix(0.6708662,0,0,-0.6352333,-66.518925,570.40819)"
       id="g2756">
<path
   id="path2758"
   d="M 226.92,707.68 L 226.93,707.64 L 226.94,707.61 L 226.96,707.57 L 226.97,707.53 L 226.99,707.5 L 227.01,707.47 L 227.02,707.43 L 227.04,707.4 L 227.06,707.37 L 227.09,707.34 L 227.11,707.32 L 227.14,707.29 L 227.16,707.26 L 227.19,707.24 L 227.21,707.22 L 227.24,707.19 L 227.27,707.17 L 227.3,707.15 L 227.33,707.13 L 227.37,707.12 L 227.4,707.1 L 227.43,707.09 L 227.47,707.07 L 227.5,707.06 L 227.54,707.05 L 227.57,707.04 L 227.61,707.03 L 227.65,707.02 L 227.69,707.02 L 227.73,707.02 L 227.77,707.01 L 227.81,707.01 C 228.15,707.01 228.38,707.24 228.54,707.56 C 228.71,707.92 228.84,708.53 228.84,708.55 C 228.84,708.65 228.75,708.65 228.72,708.65 C 228.62,708.65 228.61,708.61 228.58,708.47 C 228.44,707.91 228.25,707.23 227.84,707.23 C 227.63,707.23 227.53,707.36 227.53,707.69 C 227.53,707.91 227.65,708.38 227.73,708.73 C 227.82,709.09 227.92,709.44 228.01,709.8 C 228.04,709.95 228.13,710.33 228.18,710.48 C 228.23,710.71 228.32,711.09 228.32,711.15 C 228.32,711.33 228.18,711.42 228.04,711.42 C 227.99,711.42 227.73,711.41 227.65,711.07 C 227.46,710.34 227.02,708.6 226.9,708.07 C 226.89,708.03 226.49,707.23 225.76,707.23 C 225.25,707.23 225.15,707.68 225.15,708.05 C 225.15,708.61 225.43,709.39 225.68,710.08 C 225.8,710.38 225.85,710.52 225.85,710.71 C 225.85,711.16 225.54,711.53 225.04,711.53 C 224.09,711.53 223.72,710.08 223.72,709.99 C 223.72,709.89 223.82,709.89 223.84,709.89 C 223.94,709.89 223.95,709.91 224,710.07 C 224.25,710.94 224.63,711.31 225.01,711.31 C 225.1,711.31 225.26,711.3 225.26,710.98 C 225.26,710.74 225.15,710.45 225.09,710.3 C 224.72,709.31 224.51,708.7 224.51,708.21 C 224.51,707.26 225.2,707.01 225.73,707.01 C 226.39,707.01 226.75,707.46 226.92,707.68 z"
   style="fill:#000000;stroke-width:0" />
<path
   id="path2760"
   d="M 231.39,709.99 L 231.39,710 L 231.39,710.01 L 231.39,710.02 L 231.39,710.03 L 231.39,710.04 L 231.38,710.05 L 231.38,710.07 L 231.38,710.08 L 231.37,710.09 L 231.37,710.1 L 231.36,710.11 L 231.36,710.12 L 231.35,710.13 L 231.34,710.14 L 231.33,710.15 L 231.33,710.16 L 231.32,710.17 L 231.31,710.18 L 231.3,710.19 L 231.29,710.2 L 231.28,710.21 L 231.26,710.21 L 231.25,710.22 L 231.24,710.23 L 231.23,710.23 L 231.21,710.24 L 231.2,710.24 L 231.18,710.25 L 231.16,710.25 L 231.15,710.25 L 231.13,710.25 L 231.11,710.25 C 230.93,710.25 230.72,710.07 230.72,709.87 C 230.72,709.75 230.81,709.6 231,709.6 C 231.2,709.6 231.39,709.8 231.39,709.99 z"
   style="fill:#000000;stroke-width:0" />
<path
   id="path2762"
   d="M 229.97,706.45 L 229.96,706.43 L 229.96,706.41 L 229.95,706.38 L 229.94,706.36 L 229.94,706.34 L 229.93,706.33 L 229.93,706.31 L 229.92,706.29 L 229.92,706.27 L 229.92,706.26 L 229.91,706.24 L 229.91,706.23 L 229.91,706.22 L 229.91,706.21 L 229.91,706.2 L 229.91,706.19 L 229.91,706.17 L 229.91,706.16 L 229.91,706.15 C 229.91,705.83 230.19,705.56 230.57,705.56 C 231.27,705.56 231.57,706.52 231.57,706.63 C 231.57,706.72 231.48,706.72 231.46,706.72 C 231.36,706.72 231.36,706.68 231.33,706.6 C 231.17,706.04 230.86,705.76 230.59,705.76 C 230.45,705.76 230.42,705.85 230.42,706 C 230.42,706.16 230.46,706.29 230.53,706.45 C 230.6,706.63 230.67,706.82 230.75,707 C 230.81,707.17 231.06,707.81 231.09,707.89 C 231.11,707.96 231.13,708.04 231.13,708.11 C 231.13,708.44 230.85,708.71 230.47,708.71 C 229.78,708.71 229.46,707.76 229.46,707.64 C 229.46,707.55 229.56,707.55 229.58,707.55 C 229.68,707.55 229.68,707.58 229.7,707.66 C 229.89,708.26 230.19,708.51 230.45,708.51 C 230.56,708.51 230.62,708.45 230.62,708.27 C 230.62,708.11 230.58,708 230.41,707.57 L 229.97,706.45 z"
   style="fill:#000000;stroke-width:0" />
<path
   id="path2764"
   d="M 235.18,707.21 L 237.32,707.21 C 237.41,707.21 237.57,707.21 237.57,707.37 C 237.57,707.55 237.41,707.55 237.32,707.55 L 235.18,707.55 L 235.18,709.69 C 235.18,709.78 235.18,709.95 235.01,709.95 C 234.84,709.95 234.84,709.79 234.84,709.69 L 234.84,707.55 L 232.7,707.55 C 232.61,707.55 232.44,707.55 232.44,707.38 C 232.44,707.21 232.6,707.21 232.7,707.21 L 234.84,707.21 L 234.84,705.07 C 234.84,704.97 234.84,704.81 235.01,704.81 C 235.18,704.81 235.18,704.97 235.18,705.07 L 235.18,707.21 z"
   style="fill:#000000;stroke-width:0" />
<path
   id="path2766"
   d="M 240.41,710.07 L 240.41,710.07 L 240.41,710.08 L 240.41,710.09 L 240.41,710.1 L 240.41,710.11 L 240.41,710.11 L 240.41,710.12 L 240.41,710.13 L 240.41,710.13 L 240.41,710.14 L 240.41,710.15 L 240.41,710.15 L 240.41,710.16 L 240.41,710.16 L 240.4,710.17 L 240.4,710.18 L 240.4,710.18 L 240.4,710.19 L 240.4,710.19 L 240.4,710.2 L 240.39,710.21 L 240.39,710.22 L 240.39,710.22 L 240.38,710.23 L 240.38,710.23 L 240.37,710.24 L 240.37,710.24 L 240.36,710.25 L 240.35,710.25 L 240.34,710.25 L 240.33,710.25 L 240.33,710.26 L 240.32,710.26 L 240.31,710.26 L 240.31,710.26 L 240.3,710.26 L 240.3,710.26 L 240.29,710.26 L 240.29,710.26 L 240.28,710.26 L 240.27,710.26 L 240.26,710.26 L 240.26,710.26 L 240.25,710.26 L 240.24,710.26 L 240.23,710.26 L 240.23,710.26 L 240.22,710.26 L 240.21,710.26 L 240.2,710.26 C 239.75,709.82 239.12,709.81 238.83,709.81 L 238.83,709.56 C 239,709.56 239.46,709.56 239.84,709.76 L 239.84,706.2 C 239.84,705.97 239.84,705.88 239.15,705.88 L 238.88,705.88 L 238.88,705.63 C 239.01,705.64 239.87,705.66 240.12,705.66 C 240.34,705.66 241.22,705.64 241.37,705.63 L 241.37,705.88 L 241.11,705.88 C 240.41,705.88 240.41,705.97 240.41,706.2 L 240.41,710.07 z"
   style="fill:#000000;stroke-width:0" />
</g>    <g
       id="g2920"
       transform="matrix(0.6708662,0,0,-0.6352333,-123.30289,546.15095)"
       xml:space="preserve"
       stroke-miterlimit="10.433"
       fill-rule="even-odd"
       font-style="normal"
       font-variant="normal"
       font-weight="normal"
       font-stretch="normal"
       font-size-adjust="none"
       letter-spacing="normal"
       word-spacing="normal"
       ns0:text="$u_{1}$"
       ns0:preamble=""
       style="font-style:normal;font-variant:normal;font-weight:normal;font-stretch:normal;letter-spacing:normal;word-spacing:normal;text-anchor:start;fill:none;fill-opacity:1;stroke:#000000;stroke-width:1.53184712;stroke-linecap:butt;stroke-linejoin:miter;stroke-miterlimit:10.43299961;stroke-dasharray:none;stroke-dashoffset:0;stroke-opacity:1;display:inline">
<path
   d="M 226.92,707.68 L 226.93,707.64 L 226.94,707.61 L 226.96,707.57 L 226.97,707.53 L 226.99,707.5 L 227.01,707.47 L 227.02,707.43 L 227.04,707.4 L 227.06,707.37 L 227.09,707.34 L 227.11,707.32 L 227.14,707.29 L 227.16,707.26 L 227.19,707.24 L 227.21,707.22 L 227.24,707.19 L 227.27,707.17 L 227.3,707.15 L 227.33,707.13 L 227.37,707.12 L 227.4,707.1 L 227.43,707.09 L 227.47,707.07 L 227.5,707.06 L 227.54,707.05 L 227.57,707.04 L 227.61,707.03 L 227.65,707.02 L 227.69,707.02 L 227.73,707.02 L 227.77,707.01 L 227.81,707.01 C 228.15,707.01 228.38,707.24 228.54,707.56 C 228.71,707.92 228.84,708.53 228.84,708.55 C 228.84,708.65 228.75,708.65 228.72,708.65 C 228.62,708.65 228.61,708.61 228.58,708.47 C 228.44,707.91 228.25,707.23 227.84,707.23 C 227.63,707.23 227.53,707.36 227.53,707.69 C 227.53,707.91 227.65,708.38 227.73,708.73 C 227.82,709.09 227.92,709.44 228.01,709.8 C 228.04,709.95 228.13,710.33 228.18,710.48 C 228.23,710.71 228.32,711.09 228.32,711.15 C 228.32,711.33 228.18,711.42 228.04,711.42 C 227.99,711.42 227.73,711.41 227.65,711.07 C 227.46,710.34 227.02,708.6 226.9,708.07 C 226.89,708.03 226.49,707.23 225.76,707.23 C 225.25,707.23 225.15,707.68 225.15,708.05 C 225.15,708.61 225.43,709.39 225.68,710.08 C 225.8,710.38 225.85,710.52 225.85,710.71 C 225.85,711.16 225.54,711.53 225.04,711.53 C 224.09,711.53 223.72,710.08 223.72,709.99 C 223.72,709.89 223.82,709.89 223.84,709.89 C 223.94,709.89 223.95,709.91 224,710.07 C 224.25,710.94 224.63,711.31 225.01,711.31 C 225.1,711.31 225.26,711.3 225.26,710.98 C 225.26,710.74 225.15,710.45 225.09,710.3 C 224.72,709.31 224.51,708.7 224.51,708.21 C 224.51,707.26 225.2,707.01 225.73,707.01 C 226.39,707.01 226.75,707.46 226.92,707.68 z"
   id="path2922"
   style="fill:#000000;stroke-width:0" />
<path
   d="M 231.47,710.07 L 231.47,710.07 L 231.47,710.08 L 231.47,710.09 L 231.47,710.1 L 231.47,710.11 L 231.47,710.11 L 231.47,710.12 L 231.47,710.13 L 231.47,710.13 L 231.47,710.14 L 231.47,710.15 L 231.47,710.15 L 231.47,710.16 L 231.47,710.16 L 231.46,710.17 L 231.46,710.18 L 231.46,710.18 L 231.46,710.19 L 231.46,710.19 L 231.46,710.2 L 231.45,710.21 L 231.45,710.22 L 231.45,710.22 L 231.44,710.23 L 231.44,710.23 L 231.43,710.24 L 231.43,710.24 L 231.42,710.25 L 231.41,710.25 L 231.4,710.25 L 231.39,710.25 L 231.39,710.26 L 231.38,710.26 L 231.37,710.26 L 231.37,710.26 L 231.36,710.26 L 231.36,710.26 L 231.35,710.26 L 231.35,710.26 L 231.34,710.26 L 231.33,710.26 L 231.32,710.26 L 231.32,710.26 L 231.31,710.26 L 231.3,710.26 L 231.29,710.26 L 231.29,710.26 L 231.28,710.26 L 231.27,710.26 L 231.26,710.26 C 230.81,709.82 230.18,709.81 229.89,709.81 L 229.89,709.56 C 230.06,709.56 230.52,709.56 230.9,709.76 L 230.9,706.2 C 230.9,705.97 230.9,705.88 230.21,705.88 L 229.94,705.88 L 229.94,705.63 C 230.07,705.64 230.93,705.66 231.18,705.66 C 231.4,705.66 232.28,705.64 232.43,705.63 L 232.43,705.88 L 232.17,705.88 C 231.47,705.88 231.47,705.97 231.47,706.2 L 231.47,710.07 z"
   id="path2924"
   style="fill:#000000;stroke-width:0" />
</g>    <g
       style="font-style:normal;font-variant:normal;font-weight:normal;font-stretch:normal;letter-spacing:normal;word-spacing:normal;text-anchor:start;fill:none;fill-opacity:1;stroke:#000000;stroke-width:1.39795101;stroke-linecap:butt;stroke-linejoin:miter;stroke-miterlimit:10.43299961;stroke-dasharray:none;stroke-dashoffset:0;stroke-opacity:1;display:inline"
       id="g3172"
       transform="matrix(0.7185084,0,0,-0.7121708,-144.64526,565.24192)"
       xml:space="preserve"
       stroke-miterlimit="10.433"
       fill-rule="even-odd"
       font-style="normal"
       font-variant="normal"
       font-weight="normal"
       font-stretch="normal"
       font-size-adjust="none"
       letter-spacing="normal"
       word-spacing="normal"
       ns0:text="$A_1$"
       ns0:preamble="">
<path
   style="fill:#000000;stroke-width:0"
   d="M 225.22,708.27 L 225.18,708.21 L 225.14,708.15 L 225.1,708.09 L 225.07,708.04 L 225.03,707.99 L 224.99,707.95 L 224.96,707.9 L 224.92,707.86 L 224.88,707.82 L 224.84,707.78 L 224.81,707.75 L 224.77,707.72 L 224.73,707.69 L 224.69,707.66 L 224.66,707.63 L 224.62,707.61 L 224.58,707.59 L 224.54,707.57 L 224.5,707.55 L 224.47,707.53 L 224.43,707.52 L 224.39,707.5 L 224.35,707.49 L 224.31,707.48 L 224.27,707.47 L 224.23,707.46 L 224.19,707.45 L 224.15,707.45 L 224.07,707.44 L 223.99,707.43 C 223.87,707.42 223.78,707.42 223.78,707.23 C 223.78,707.17 223.83,707.12 223.91,707.12 C 224.18,707.12 224.49,707.15 224.77,707.15 C 225.1,707.15 225.45,707.12 225.76,707.12 C 225.82,707.12 225.95,707.12 225.95,707.31 C 225.95,707.42 225.86,707.43 225.79,707.43 C 225.56,707.45 225.32,707.53 225.32,707.78 C 225.32,707.9 225.38,708.01 225.46,708.15 C 225.54,708.27 225.54,708.27 226.22,709.42 L 228.72,709.42 L 228.69,709.73 L 226.41,709.73 L 228.37,713.02 L 228.69,709.73 L 228.72,709.42 C 228.74,709.22 228.88,707.86 228.88,707.76 C 228.88,707.46 228.36,707.43 228.16,707.43 C 228.02,707.43 227.93,707.43 227.93,707.23 C 227.93,707.12 228.04,707.12 228.07,707.12 C 228.47,707.12 228.9,707.15 229.31,707.15 C 229.56,707.15 230.19,707.12 230.44,707.12 C 230.5,707.12 230.62,707.12 230.62,707.32 C 230.62,707.43 230.52,707.43 230.39,707.43 C 229.77,707.43 229.77,707.5 229.74,707.79 L 229.13,714.02 C 229.11,714.22 229.11,714.26 228.94,714.26 C 228.78,714.26 228.74,714.19 228.68,714.09 L 225.22,708.27 z"
   id="path3174" />
<path
   style="fill:#000000;stroke-width:0"
   d="M 233.24,710.07 L 233.24,710.07 L 233.24,710.08 L 233.24,710.09 L 233.24,710.1 L 233.24,710.11 L 233.24,710.11 L 233.24,710.12 L 233.24,710.13 L 233.24,710.13 L 233.24,710.14 L 233.24,710.15 L 233.24,710.15 L 233.24,710.16 L 233.24,710.16 L 233.23,710.17 L 233.23,710.18 L 233.23,710.18 L 233.23,710.19 L 233.23,710.19 L 233.23,710.2 L 233.22,710.21 L 233.22,710.22 L 233.22,710.22 L 233.21,710.23 L 233.21,710.23 L 233.2,710.24 L 233.2,710.24 L 233.19,710.25 L 233.18,710.25 L 233.17,710.25 L 233.16,710.25 L 233.16,710.26 L 233.15,710.26 L 233.14,710.26 L 233.14,710.26 L 233.13,710.26 L 233.13,710.26 L 233.12,710.26 L 233.12,710.26 L 233.11,710.26 L 233.1,710.26 L 233.09,710.26 L 233.09,710.26 L 233.08,710.26 L 233.07,710.26 L 233.06,710.26 L 233.06,710.26 L 233.05,710.26 L 233.04,710.26 L 233.03,710.26 C 232.58,709.82 231.95,709.81 231.66,709.81 L 231.66,709.56 C 231.83,709.56 232.29,709.56 232.67,709.76 L 232.67,706.2 C 232.67,705.97 232.67,705.88 231.98,705.88 L 231.71,705.88 L 231.71,705.63 C 231.84,705.64 232.7,705.66 232.95,705.66 C 233.17,705.66 234.05,705.64 234.2,705.63 L 234.2,705.88 L 233.94,705.88 C 233.24,705.88 233.24,705.97 233.24,706.2 L 233.24,710.07 z"
   id="path3176" />
</g>    <g
       id="g3460"
       transform="matrix(0.7185084,0,0,-0.7121708,-124.04938,565.13033)"
       xml:space="preserve"
       stroke-miterlimit="10.433"
       fill-rule="even-odd"
       font-style="normal"
       font-variant="normal"
       font-weight="normal"
       font-stretch="normal"
       font-size-adjust="none"
       letter-spacing="normal"
       word-spacing="normal"
       ns0:text="$A_2$"
       ns0:preamble=""
       style="font-style:normal;font-variant:normal;font-weight:normal;font-stretch:normal;letter-spacing:normal;word-spacing:normal;text-anchor:start;fill:none;fill-opacity:1;stroke:#000000;stroke-width:1.39795101;stroke-linecap:butt;stroke-linejoin:miter;stroke-miterlimit:10.43299961;stroke-dasharray:none;stroke-dashoffset:0;stroke-opacity:1;display:inline">
<path
   d="M 225.22,708.27 L 225.18,708.21 L 225.14,708.15 L 225.1,708.09 L 225.07,708.04 L 225.03,707.99 L 224.99,707.95 L 224.96,707.9 L 224.92,707.86 L 224.88,707.82 L 224.84,707.78 L 224.81,707.75 L 224.77,707.72 L 224.73,707.69 L 224.69,707.66 L 224.66,707.63 L 224.62,707.61 L 224.58,707.59 L 224.54,707.57 L 224.5,707.55 L 224.47,707.53 L 224.43,707.52 L 224.39,707.5 L 224.35,707.49 L 224.31,707.48 L 224.27,707.47 L 224.23,707.46 L 224.19,707.45 L 224.15,707.45 L 224.07,707.44 L 223.99,707.43 C 223.87,707.42 223.78,707.42 223.78,707.23 C 223.78,707.17 223.83,707.12 223.91,707.12 C 224.18,707.12 224.49,707.15 224.77,707.15 C 225.1,707.15 225.45,707.12 225.76,707.12 C 225.82,707.12 225.95,707.12 225.95,707.31 C 225.95,707.42 225.86,707.43 225.79,707.43 C 225.56,707.45 225.32,707.53 225.32,707.78 C 225.32,707.9 225.38,708.01 225.46,708.15 C 225.54,708.27 225.54,708.27 226.22,709.42 L 228.72,709.42 L 228.69,709.73 L 226.41,709.73 L 228.37,713.02 L 228.69,709.73 L 228.72,709.42 C 228.74,709.22 228.88,707.86 228.88,707.76 C 228.88,707.46 228.36,707.43 228.16,707.43 C 228.02,707.43 227.93,707.43 227.93,707.23 C 227.93,707.12 228.04,707.12 228.07,707.12 C 228.47,707.12 228.9,707.15 229.31,707.15 C 229.56,707.15 230.19,707.12 230.44,707.12 C 230.5,707.12 230.62,707.12 230.62,707.32 C 230.62,707.43 230.52,707.43 230.39,707.43 C 229.77,707.43 229.77,707.5 229.74,707.79 L 229.13,714.02 C 229.11,714.22 229.11,714.26 228.94,714.26 C 228.78,714.26 228.74,714.19 228.68,714.09 L 225.22,708.27 z"
   id="path3463"
   style="fill:#000000;stroke-width:0" />
<path
   d="M 234.42,706.9 L 234.19,706.9 C 234.17,706.75 234.1,706.33 234.01,706.27 C 233.95,706.22 233.41,706.22 233.32,706.22 L 232.03,706.22 C 232.76,706.87 233.01,707.07 233.43,707.39 C 233.94,707.81 234.42,708.24 234.42,708.9 C 234.42,709.74 233.68,710.26 232.79,710.26 C 231.93,710.26 231.34,709.65 231.34,709.01 C 231.34,708.66 231.64,708.62 231.71,708.62 C 231.88,708.62 232.08,708.74 232.08,708.99 C 232.08,709.12 232.03,709.36 231.67,709.36 C 231.89,709.86 232.36,710.01 232.69,710.01 C 233.38,710.01 233.75,709.47 233.75,708.9 C 233.75,708.29 233.32,707.81 233.09,707.56 L 231.41,705.9 C 231.34,705.84 231.34,705.83 231.34,705.63 L 234.21,705.63 L 234.42,706.9 z"
   id="path3465"
   style="fill:#000000;stroke-width:0" />
</g>    <g
       style="font-style:normal;font-variant:normal;font-weight:normal;font-stretch:normal;letter-spacing:normal;word-spacing:normal;text-anchor:start;fill:none;fill-opacity:1;stroke:#000000;stroke-width:1.53184712;stroke-linecap:butt;stroke-linejoin:miter;stroke-miterlimit:10.43299961;stroke-dasharray:none;stroke-dashoffset:0;stroke-opacity:1;display:inline"
       ns0:preamble=""
       ns0:text="$u_{i}$"
       word-spacing="normal"
       letter-spacing="normal"
       font-size-adjust="none"
       font-stretch="normal"
       font-weight="normal"
       font-variant="normal"
       font-style="normal"
       fill-rule="even-odd"
       stroke-miterlimit="10.433"
       xml:space="preserve"
       transform="matrix(0.6708662,0,0,-0.6352333,-82.113923,547.03484)"
       id="g3599">
<path
   id="path3601"
   d="M 226.92,707.68 L 226.93,707.64 L 226.94,707.61 L 226.96,707.57 L 226.97,707.53 L 226.99,707.5 L 227.01,707.47 L 227.02,707.43 L 227.04,707.4 L 227.06,707.37 L 227.09,707.34 L 227.11,707.32 L 227.14,707.29 L 227.16,707.26 L 227.19,707.24 L 227.21,707.22 L 227.24,707.19 L 227.27,707.17 L 227.3,707.15 L 227.33,707.13 L 227.37,707.12 L 227.4,707.1 L 227.43,707.09 L 227.47,707.07 L 227.5,707.06 L 227.54,707.05 L 227.57,707.04 L 227.61,707.03 L 227.65,707.02 L 227.69,707.02 L 227.73,707.02 L 227.77,707.01 L 227.81,707.01 C 228.15,707.01 228.38,707.24 228.54,707.56 C 228.71,707.92 228.84,708.53 228.84,708.55 C 228.84,708.65 228.75,708.65 228.72,708.65 C 228.62,708.65 228.61,708.61 228.58,708.47 C 228.44,707.91 228.25,707.23 227.84,707.23 C 227.63,707.23 227.53,707.36 227.53,707.69 C 227.53,707.91 227.65,708.38 227.73,708.73 C 227.82,709.09 227.92,709.44 228.01,709.8 C 228.04,709.95 228.13,710.33 228.18,710.48 C 228.23,710.71 228.32,711.09 228.32,711.15 C 228.32,711.33 228.18,711.42 228.04,711.42 C 227.99,711.42 227.73,711.41 227.65,711.07 C 227.46,710.34 227.02,708.6 226.9,708.07 C 226.89,708.03 226.49,707.23 225.76,707.23 C 225.25,707.23 225.15,707.68 225.15,708.05 C 225.15,708.61 225.43,709.39 225.68,710.08 C 225.8,710.38 225.85,710.52 225.85,710.71 C 225.85,711.16 225.54,711.53 225.04,711.53 C 224.09,711.53 223.72,710.08 223.72,709.99 C 223.72,709.89 223.82,709.89 223.84,709.89 C 223.94,709.89 223.95,709.91 224,710.07 C 224.25,710.94 224.63,711.31 225.01,711.31 C 225.1,711.31 225.26,711.3 225.26,710.98 C 225.26,710.74 225.15,710.45 225.09,710.3 C 224.72,709.31 224.51,708.7 224.51,708.21 C 224.51,707.26 225.2,707.01 225.73,707.01 C 226.39,707.01 226.75,707.46 226.92,707.68 z"
   style="fill:#000000;stroke-width:0" />
<path
   id="path3603"
   d="M 231.39,709.99 L 231.39,710 L 231.39,710.01 L 231.39,710.02 L 231.39,710.03 L 231.39,710.04 L 231.38,710.05 L 231.38,710.07 L 231.38,710.08 L 231.37,710.09 L 231.37,710.1 L 231.36,710.11 L 231.36,710.12 L 231.35,710.13 L 231.34,710.14 L 231.33,710.15 L 231.33,710.16 L 231.32,710.17 L 231.31,710.18 L 231.3,710.19 L 231.29,710.2 L 231.28,710.21 L 231.26,710.21 L 231.25,710.22 L 231.24,710.23 L 231.23,710.23 L 231.21,710.24 L 231.2,710.24 L 231.18,710.25 L 231.16,710.25 L 231.15,710.25 L 231.13,710.25 L 231.11,710.25 C 230.93,710.25 230.72,710.07 230.72,709.87 C 230.72,709.75 230.81,709.6 231,709.6 C 231.2,709.6 231.39,709.8 231.39,709.99 z"
   style="fill:#000000;stroke-width:0" />
<path
   id="path3605"
   d="M 229.97,706.45 L 229.96,706.43 L 229.96,706.41 L 229.95,706.38 L 229.94,706.36 L 229.94,706.34 L 229.93,706.33 L 229.93,706.31 L 229.92,706.29 L 229.92,706.27 L 229.92,706.26 L 229.91,706.24 L 229.91,706.23 L 229.91,706.22 L 229.91,706.21 L 229.91,706.2 L 229.91,706.19 L 229.91,706.17 L 229.91,706.16 L 229.91,706.15 C 229.91,705.83 230.19,705.56 230.57,705.56 C 231.27,705.56 231.57,706.52 231.57,706.63 C 231.57,706.72 231.48,706.72 231.46,706.72 C 231.36,706.72 231.36,706.68 231.33,706.6 C 231.17,706.04 230.86,705.76 230.59,705.76 C 230.45,705.76 230.42,705.85 230.42,706 C 230.42,706.16 230.46,706.29 230.53,706.45 C 230.6,706.63 230.67,706.82 230.75,707 C 230.81,707.17 231.06,707.81 231.09,707.89 C 231.11,707.96 231.13,708.04 231.13,708.11 C 231.13,708.44 230.85,708.71 230.47,708.71 C 229.78,708.71 229.46,707.76 229.46,707.64 C 229.46,707.55 229.56,707.55 229.58,707.55 C 229.68,707.55 229.68,707.58 229.7,707.66 C 229.89,708.26 230.19,708.51 230.45,708.51 C 230.56,708.51 230.62,708.45 230.62,708.27 C 230.62,708.11 230.58,708 230.41,707.57 L 229.97,706.45 z"
   style="fill:#000000;stroke-width:0" />
</g>    <g
       id="g3738"
       transform="matrix(0.7185084,0,0,-0.7121708,-44.67664,611.44582)"
       xml:space="preserve"
       stroke-miterlimit="10.433"
       fill-rule="even-odd"
       font-style="normal"
       font-variant="normal"
       font-weight="normal"
       font-stretch="normal"
       font-size-adjust="none"
       letter-spacing="normal"
       word-spacing="normal"
       ns0:text="$A_m$"
       ns0:preamble=""
       style="font-style:normal;font-variant:normal;font-weight:normal;font-stretch:normal;letter-spacing:normal;word-spacing:normal;text-anchor:start;fill:none;fill-opacity:1;stroke:#000000;stroke-width:1.39795101;stroke-linecap:butt;stroke-linejoin:miter;stroke-miterlimit:10.43299961;stroke-dasharray:none;stroke-dashoffset:0;stroke-opacity:1;display:inline">
<path
   d="M 225.22,708.27 L 225.18,708.21 L 225.14,708.15 L 225.1,708.09 L 225.07,708.04 L 225.03,707.99 L 224.99,707.95 L 224.96,707.9 L 224.92,707.86 L 224.88,707.82 L 224.84,707.78 L 224.81,707.75 L 224.77,707.72 L 224.73,707.69 L 224.69,707.66 L 224.66,707.63 L 224.62,707.61 L 224.58,707.59 L 224.54,707.57 L 224.5,707.55 L 224.47,707.53 L 224.43,707.52 L 224.39,707.5 L 224.35,707.49 L 224.31,707.48 L 224.27,707.47 L 224.23,707.46 L 224.19,707.45 L 224.15,707.45 L 224.07,707.44 L 223.99,707.43 C 223.87,707.42 223.78,707.42 223.78,707.23 C 223.78,707.17 223.83,707.12 223.91,707.12 C 224.18,707.12 224.49,707.15 224.77,707.15 C 225.1,707.15 225.45,707.12 225.76,707.12 C 225.82,707.12 225.95,707.12 225.95,707.31 C 225.95,707.42 225.86,707.43 225.79,707.43 C 225.56,707.45 225.32,707.53 225.32,707.78 C 225.32,707.9 225.38,708.01 225.46,708.15 C 225.54,708.27 225.54,708.27 226.22,709.42 L 228.72,709.42 L 228.69,709.73 L 226.41,709.73 L 228.37,713.02 L 228.69,709.73 L 228.72,709.42 C 228.74,709.22 228.88,707.86 228.88,707.76 C 228.88,707.46 228.36,707.43 228.16,707.43 C 228.02,707.43 227.93,707.43 227.93,707.23 C 227.93,707.12 228.04,707.12 228.07,707.12 C 228.47,707.12 228.9,707.15 229.31,707.15 C 229.56,707.15 230.19,707.12 230.44,707.12 C 230.5,707.12 230.62,707.12 230.62,707.32 C 230.62,707.43 230.52,707.43 230.39,707.43 C 229.77,707.43 229.77,707.5 229.74,707.79 L 229.13,714.02 C 229.11,714.22 229.11,714.26 228.94,714.26 C 228.78,714.26 228.74,714.19 228.68,714.09 L 225.22,708.27 z"
   id="path3740"
   style="fill:#000000;stroke-width:0" />
<path
   d="M 233.93,706.2 L 233.93,706.18 L 233.92,706.17 L 233.92,706.15 L 233.91,706.14 L 233.91,706.12 L 233.91,706.11 L 233.9,706.08 L 233.89,706.04 L 233.88,706.01 L 233.87,705.98 L 233.87,705.96 L 233.87,705.95 L 233.86,705.93 L 233.86,705.92 L 233.86,705.91 L 233.85,705.89 L 233.85,705.88 L 233.85,705.87 L 233.84,705.85 L 233.84,705.84 L 233.84,705.83 L 233.84,705.82 L 233.84,705.81 L 233.83,705.81 L 233.83,705.8 L 233.83,705.79 L 233.83,705.79 L 233.83,705.78 C 233.83,705.63 233.96,705.56 234.07,705.56 C 234.19,705.56 234.31,705.65 234.34,705.71 C 234.38,705.78 234.43,706 234.47,706.15 C 234.5,706.28 234.58,706.6 234.62,706.77 C 234.66,706.93 234.7,707.08 234.74,707.24 C 234.82,707.54 234.82,707.55 234.95,707.77 C 235.18,708.11 235.53,708.51 236.07,708.51 C 236.46,708.51 236.48,708.19 236.48,708.02 C 236.48,707.6 236.18,706.83 236.07,706.54 C 235.99,706.34 235.96,706.28 235.96,706.16 C 235.96,705.79 236.27,705.56 236.63,705.56 C 237.32,705.56 237.63,706.52 237.63,706.63 C 237.63,706.72 237.54,706.72 237.52,706.72 C 237.42,706.72 237.42,706.68 237.39,706.6 C 237.23,706.04 236.93,705.76 236.65,705.76 C 236.5,705.76 236.48,705.85 236.48,706 C 236.48,706.16 236.51,706.25 236.63,706.57 C 236.72,706.78 237.01,707.52 237.01,707.91 C 237.01,708.02 237.01,708.32 236.75,708.52 C 236.63,708.61 236.43,708.71 236.1,708.71 C 235.47,708.71 235.09,708.29 234.86,708 C 234.81,708.59 234.31,708.71 233.96,708.71 C 233.38,708.71 232.99,708.35 232.78,708.07 C 232.73,708.55 232.32,708.71 232.03,708.71 C 231.73,708.71 231.57,708.49 231.48,708.33 C 231.33,708.07 231.23,707.67 231.23,707.64 C 231.23,707.55 231.33,707.55 231.35,707.55 C 231.45,707.55 231.45,707.57 231.5,707.76 C 231.61,708.17 231.74,708.51 232.01,708.51 C 232.19,708.51 232.24,708.36 232.24,708.17 C 232.24,708.04 232.18,707.78 232.13,707.59 C 232.08,707.4 232.01,707.11 231.98,706.96 L 231.75,706.07 C 231.73,705.98 231.68,705.8 231.68,705.78 C 231.68,705.63 231.81,705.56 231.92,705.56 C 232.05,705.56 232.16,705.65 232.19,705.71 C 232.23,705.78 232.28,706 232.32,706.15 C 232.35,706.28 232.43,706.6 232.47,706.77 C 232.51,706.93 232.55,707.08 232.59,707.24 C 232.67,707.53 232.68,707.58 232.88,707.87 C 233.08,708.15 233.41,708.51 233.93,708.51 C 234.33,708.51 234.34,708.16 234.34,708.02 C 234.34,707.85 234.32,707.76 234.22,707.37 L 233.93,706.2 z"
   id="path3742"
   style="fill:#000000;stroke-width:0" />
</g>    <g
       style="font-style:normal;font-variant:normal;font-weight:normal;font-stretch:normal;letter-spacing:normal;word-spacing:normal;text-anchor:start;fill:none;fill-opacity:1;stroke:#000000;stroke-width:1.40770936;stroke-linecap:butt;stroke-linejoin:miter;stroke-miterlimit:10.43299961;stroke-dasharray:none;stroke-dashoffset:0;stroke-opacity:1;display:inline"
       ns0:preamble=""
       ns0:text="$e(u)$"
       word-spacing="normal"
       letter-spacing="normal"
       font-size-adjust="none"
       font-stretch="normal"
       font-weight="normal"
       font-variant="normal"
       font-style="normal"
       fill-rule="even-odd"
       stroke-miterlimit="10.433"
       xml:space="preserve"
       transform="matrix(0.7167477,0,0,-0.7040569,-156.00349,493.26253)"
       id="g6073">
<path
   id="path6075"
   d="M 225.3,709.42 L 225.32,709.42 L 225.36,709.42 L 225.39,709.42 L 225.42,709.43 L 225.46,709.43 L 225.5,709.43 L 225.54,709.43 L 225.59,709.43 L 225.63,709.43 L 225.68,709.44 L 225.72,709.44 L 225.77,709.44 L 225.82,709.45 L 225.87,709.45 L 225.98,709.46 L 226.09,709.47 L 226.19,709.49 L 226.3,709.51 L 226.41,709.53 L 226.52,709.55 L 226.57,709.57 L 226.62,709.58 L 226.67,709.6 L 226.72,709.62 L 226.77,709.63 L 226.82,709.65 C 227.52,709.95 227.57,710.54 227.57,710.68 C 227.57,711.12 227.19,711.53 226.5,711.53 L 226.5,711.31 C 226.97,711.31 227.24,711.02 227.24,710.68 C 227.24,709.64 225.64,709.64 225.24,709.64 L 224.83,709.64 C 225.22,711.16 226.24,711.31 226.5,711.31 L 226.5,711.53 C 225.4,711.53 223.89,710.56 223.89,708.82 C 223.89,707.8 224.48,707.01 225.46,707.01 C 226.88,707.01 227.72,708.07 227.72,708.19 C 227.72,708.25 227.66,708.32 227.6,708.32 C 227.55,708.32 227.53,708.3 227.47,708.22 C 226.68,707.23 225.59,707.23 225.48,707.23 C 224.7,707.23 224.61,708.07 224.61,708.39 C 224.61,708.51 224.62,708.82 224.77,709.42 L 225.3,709.42 z"
   style="fill:#000000;stroke-width:0" />
<path
   id="path6077"
   d="M 231.37,704.73 L 231.36,704.74 L 231.36,704.74 L 231.36,704.75 L 231.36,704.75 L 231.36,704.75 L 231.36,704.75 L 231.36,704.76 L 231.36,704.76 L 231.36,704.77 L 231.36,704.77 L 231.35,704.77 L 231.35,704.78 L 231.35,704.78 L 231.34,704.79 L 231.34,704.79 L 231.33,704.8 L 231.33,704.81 L 231.32,704.81 L 231.32,704.82 L 231.32,704.82 L 231.31,704.83 L 231.31,704.83 L 231.31,704.84 L 231.3,704.84 L 231.3,704.84 L 231.29,704.85 L 231.29,704.85 L 231.28,704.86 L 231.28,704.86 L 231.27,704.87 L 231.27,704.88 L 231.26,704.88 L 231.26,704.89 L 231.25,704.89 L 231.25,704.9 L 231.24,704.91 L 231.23,704.91 L 231.23,704.92 L 231.22,704.93 L 231.21,704.94 L 231.2,704.94 L 231.2,704.95 C 229.95,706.21 229.63,708.09 229.63,709.61 C 229.63,711.35 230.01,713.08 231.24,714.33 C 231.37,714.45 231.37,714.47 231.37,714.49 C 231.37,714.57 231.32,714.59 231.27,714.59 C 231.17,714.59 230.27,713.92 229.68,712.65 C 229.17,711.56 229.05,710.45 229.05,709.61 C 229.05,708.84 229.16,707.63 229.71,706.51 C 230.31,705.28 231.17,704.63 231.27,704.63 C 231.32,704.63 231.37,704.66 231.37,704.73 z"
   style="fill:#000000;stroke-width:0" />
<path
   id="path6079"
   d="M 235.43,707.68 L 235.44,707.64 L 235.46,707.61 L 235.47,707.57 L 235.48,707.53 L 235.5,707.5 L 235.52,707.47 L 235.54,707.43 L 235.56,707.4 L 235.58,707.37 L 235.6,707.34 L 235.62,707.32 L 235.65,707.29 L 235.67,707.26 L 235.7,707.24 L 235.73,707.22 L 235.76,707.19 L 235.78,707.17 L 235.82,707.15 L 235.85,707.13 L 235.88,707.12 L 235.91,707.1 L 235.95,707.09 L 235.98,707.07 L 236.01,707.06 L 236.05,707.05 L 236.09,707.04 L 236.12,707.03 L 236.16,707.02 L 236.2,707.02 L 236.24,707.02 L 236.28,707.01 L 236.32,707.01 C 236.67,707.01 236.9,707.24 237.06,707.56 C 237.23,707.92 237.35,708.53 237.35,708.55 C 237.35,708.65 237.26,708.65 237.24,708.65 C 237.14,708.65 237.13,708.61 237.1,708.47 C 236.96,707.91 236.77,707.23 236.35,707.23 C 236.14,707.23 236.04,707.36 236.04,707.69 C 236.04,707.91 236.16,708.38 236.24,708.73 C 236.33,709.09 236.43,709.44 236.52,709.8 C 236.55,709.95 236.65,710.33 236.69,710.48 C 236.74,710.71 236.84,711.09 236.84,711.15 C 236.84,711.33 236.7,711.42 236.55,711.42 C 236.5,711.42 236.24,711.41 236.16,711.07 C 235.97,710.34 235.53,708.6 235.41,708.07 C 235.4,708.03 235,707.23 234.28,707.23 C 233.76,707.23 233.66,707.68 233.66,708.05 C 233.66,708.61 233.94,709.39 234.2,710.08 C 234.32,710.38 234.37,710.52 234.37,710.71 C 234.37,711.16 234.05,711.53 233.55,711.53 C 232.6,711.53 232.23,710.08 232.23,709.99 C 232.23,709.89 232.33,709.89 232.35,709.89 C 232.45,709.89 232.46,709.91 232.51,710.07 C 232.76,710.94 233.14,711.31 233.52,711.31 C 233.61,711.31 233.77,711.3 233.77,710.98 C 233.77,710.74 233.66,710.45 233.6,710.3 C 233.23,709.31 233.02,708.7 233.02,708.21 C 233.02,707.26 233.71,707.01 234.25,707.01 C 234.9,707.01 235.26,707.46 235.43,707.68 z"
   style="fill:#000000;stroke-width:0" />
<path
   id="path6081"
   d="M 240.53,709.61 L 240.53,709.69 L 240.53,709.76 L 240.53,709.84 L 240.53,709.92 L 240.52,710.09 L 240.51,710.27 L 240.49,710.45 L 240.47,710.64 L 240.44,710.84 L 240.41,711.04 L 240.37,711.24 L 240.32,711.45 L 240.27,711.66 L 240.21,711.87 L 240.14,712.08 L 240.06,712.3 L 240.02,712.4 L 239.97,712.51 L 239.92,712.62 L 239.87,712.72 C 239.28,713.95 238.42,714.59 238.32,714.59 C 238.26,714.59 238.22,714.55 238.22,714.49 C 238.22,714.47 238.22,714.45 238.41,714.27 C 239.39,713.28 239.95,711.7 239.95,709.61 C 239.95,707.91 239.59,706.16 238.35,704.9 C 238.22,704.78 238.22,704.76 238.22,704.73 C 238.22,704.67 238.26,704.63 238.32,704.63 C 238.42,704.63 239.32,705.31 239.9,706.58 C 240.41,707.67 240.53,708.78 240.53,709.61 z"
   style="fill:#000000;stroke-width:0" />
</g>    <g
       id="g7818"
       transform="matrix(0.6708662,0,0,-0.6352333,-23.849126,575.91087)"
       xml:space="preserve"
       stroke-miterlimit="10.433"
       fill-rule="even-odd"
       font-style="normal"
       font-variant="normal"
       font-weight="normal"
       font-stretch="normal"
       font-size-adjust="none"
       letter-spacing="normal"
       word-spacing="normal"
       ns0:text="$u_{m}$"
       ns0:preamble=""
       style="font-style:normal;font-variant:normal;font-weight:normal;font-stretch:normal;letter-spacing:normal;word-spacing:normal;text-anchor:start;fill:none;fill-opacity:1;stroke:#000000;stroke-width:1.53184712;stroke-linecap:butt;stroke-linejoin:miter;stroke-miterlimit:10.43299961;stroke-dasharray:none;stroke-dashoffset:0;stroke-opacity:1;display:inline">
<path
   style="fill:#000000;stroke-width:0"
   d="M 226.92,707.68 L 226.93,707.64 L 226.94,707.61 L 226.96,707.57 L 226.97,707.53 L 226.99,707.5 L 227.01,707.47 L 227.02,707.43 L 227.04,707.4 L 227.06,707.37 L 227.09,707.34 L 227.11,707.32 L 227.14,707.29 L 227.16,707.26 L 227.19,707.24 L 227.21,707.22 L 227.24,707.19 L 227.27,707.17 L 227.3,707.15 L 227.33,707.13 L 227.37,707.12 L 227.4,707.1 L 227.43,707.09 L 227.47,707.07 L 227.5,707.06 L 227.54,707.05 L 227.57,707.04 L 227.61,707.03 L 227.65,707.02 L 227.69,707.02 L 227.73,707.02 L 227.77,707.01 L 227.81,707.01 C 228.15,707.01 228.38,707.24 228.54,707.56 C 228.71,707.92 228.84,708.53 228.84,708.55 C 228.84,708.65 228.75,708.65 228.72,708.65 C 228.62,708.65 228.61,708.61 228.58,708.47 C 228.44,707.91 228.25,707.23 227.84,707.23 C 227.63,707.23 227.53,707.36 227.53,707.69 C 227.53,707.91 227.65,708.38 227.73,708.73 C 227.82,709.09 227.92,709.44 228.01,709.8 C 228.04,709.95 228.13,710.33 228.18,710.48 C 228.23,710.71 228.32,711.09 228.32,711.15 C 228.32,711.33 228.18,711.42 228.04,711.42 C 227.99,711.42 227.73,711.41 227.65,711.07 C 227.46,710.34 227.02,708.6 226.9,708.07 C 226.89,708.03 226.49,707.23 225.76,707.23 C 225.25,707.23 225.15,707.68 225.15,708.05 C 225.15,708.61 225.43,709.39 225.68,710.08 C 225.8,710.38 225.85,710.52 225.85,710.71 C 225.85,711.16 225.54,711.53 225.04,711.53 C 224.09,711.53 223.72,710.08 223.72,709.99 C 223.72,709.89 223.82,709.89 223.84,709.89 C 223.94,709.89 223.95,709.91 224,710.07 C 224.25,710.94 224.63,711.31 225.01,711.31 C 225.1,711.31 225.26,711.3 225.26,710.98 C 225.26,710.74 225.15,710.45 225.09,710.3 C 224.72,709.31 224.51,708.7 224.51,708.21 C 224.51,707.26 225.2,707.01 225.73,707.01 C 226.39,707.01 226.75,707.46 226.92,707.68 z"
   id="path7820" />
<path
   style="fill:#000000;stroke-width:0"
   d="M 232.16,706.2 L 232.16,706.18 L 232.15,706.17 L 232.15,706.15 L 232.14,706.14 L 232.14,706.12 L 232.14,706.11 L 232.13,706.08 L 232.12,706.04 L 232.11,706.01 L 232.1,705.98 L 232.1,705.96 L 232.1,705.95 L 232.09,705.93 L 232.09,705.92 L 232.09,705.91 L 232.08,705.89 L 232.08,705.88 L 232.08,705.87 L 232.07,705.85 L 232.07,705.84 L 232.07,705.83 L 232.07,705.82 L 232.07,705.81 L 232.06,705.81 L 232.06,705.8 L 232.06,705.79 L 232.06,705.79 L 232.06,705.78 C 232.06,705.63 232.19,705.56 232.3,705.56 C 232.42,705.56 232.54,705.65 232.57,705.71 C 232.6,705.78 232.66,706 232.7,706.15 C 232.73,706.28 232.81,706.6 232.85,706.77 C 232.89,706.93 232.93,707.08 232.97,707.24 C 233.04,707.54 233.04,707.55 233.18,707.77 C 233.41,708.11 233.76,708.51 234.3,708.51 C 234.69,708.51 234.71,708.19 234.71,708.02 C 234.71,707.6 234.41,706.83 234.3,706.54 C 234.22,706.34 234.2,706.28 234.2,706.16 C 234.2,705.79 234.5,705.56 234.86,705.56 C 235.55,705.56 235.86,706.52 235.86,706.63 C 235.86,706.72 235.77,706.72 235.75,706.72 C 235.65,706.72 235.65,706.68 235.62,706.6 C 235.46,706.04 235.16,705.76 234.88,705.76 C 234.73,705.76 234.71,705.85 234.71,706 C 234.71,706.16 234.74,706.25 234.87,706.57 C 234.95,706.78 235.24,707.52 235.24,707.91 C 235.24,708.02 235.24,708.32 234.98,708.52 C 234.86,708.61 234.66,708.71 234.33,708.71 C 233.7,708.71 233.32,708.29 233.09,708 C 233.04,708.59 232.54,708.71 232.19,708.71 C 231.61,708.71 231.22,708.35 231.01,708.07 C 230.96,708.55 230.55,708.71 230.26,708.71 C 229.96,708.71 229.8,708.49 229.71,708.33 C 229.56,708.07 229.46,707.67 229.46,707.64 C 229.46,707.55 229.56,707.55 229.58,707.55 C 229.68,707.55 229.68,707.57 229.73,707.76 C 229.84,708.17 229.97,708.51 230.24,708.51 C 230.42,708.51 230.47,708.36 230.47,708.17 C 230.47,708.04 230.41,707.78 230.36,707.59 C 230.31,707.4 230.24,707.11 230.21,706.96 L 229.98,706.07 C 229.96,705.98 229.91,705.8 229.91,705.78 C 229.91,705.63 230.04,705.56 230.15,705.56 C 230.28,705.56 230.39,705.65 230.42,705.71 C 230.46,705.78 230.51,706 230.55,706.15 C 230.58,706.28 230.66,706.6 230.7,706.77 C 230.74,706.93 230.79,707.08 230.82,707.24 C 230.9,707.53 230.91,707.58 231.11,707.87 C 231.31,708.15 231.64,708.51 232.16,708.51 C 232.56,708.51 232.57,708.16 232.57,708.02 C 232.57,707.85 232.55,707.76 232.45,707.37 L 232.16,706.2 z"
   id="path7822" />
</g>    <g
       style="font-style:normal;font-variant:normal;font-weight:normal;font-stretch:normal;letter-spacing:normal;word-spacing:normal;text-anchor:start;fill:none;fill-opacity:1;stroke:#000000;stroke-width:1.53184712;stroke-linecap:butt;stroke-linejoin:miter;stroke-miterlimit:10.43299961;stroke-dasharray:none;stroke-dashoffset:0;stroke-opacity:1;display:inline"
       ns0:preamble=""
       ns0:text="$=$"
       word-spacing="normal"
       letter-spacing="normal"
       font-size-adjust="none"
       font-stretch="normal"
       font-weight="normal"
       font-variant="normal"
       font-style="normal"
       fill-rule="even-odd"
       stroke-miterlimit="10.433"
       xml:space="preserve"
       transform="matrix(0.6708662,0,0,-0.6352333,-15.035086,576.39282)"
       id="g8064">
<path
   id="path8066"
   d="M 230.28,710.38 L 230.31,710.38 L 230.33,710.38 L 230.36,710.38 L 230.38,710.38 L 230.39,710.38 L 230.41,710.38 L 230.42,710.39 L 230.44,710.39 L 230.45,710.39 L 230.46,710.39 L 230.48,710.4 L 230.49,710.4 L 230.5,710.41 L 230.51,710.41 L 230.53,710.42 L 230.54,710.42 L 230.55,710.43 L 230.56,710.44 L 230.57,710.44 L 230.58,710.45 L 230.58,710.46 L 230.59,710.47 L 230.59,710.48 L 230.59,710.48 L 230.6,710.49 L 230.6,710.49 L 230.6,710.5 L 230.61,710.51 L 230.61,710.51 L 230.61,710.52 L 230.61,710.53 L 230.61,710.54 L 230.61,710.54 L 230.61,710.55 L 230.62,710.56 L 230.62,710.57 L 230.62,710.58 C 230.62,710.78 230.43,710.78 230.29,710.78 L 224.32,710.78 C 224.18,710.78 223.99,710.78 223.99,710.58 C 223.99,710.38 224.18,710.38 224.33,710.38 L 230.28,710.38 z"
   style="fill:#000000;stroke-width:0" />
<path
   id="path8068"
   d="M 230.29,708.45 L 230.3,708.45 L 230.31,708.45 L 230.34,708.45 L 230.37,708.45 L 230.38,708.45 L 230.4,708.45 L 230.41,708.45 L 230.42,708.45 L 230.44,708.46 L 230.45,708.46 L 230.47,708.46 L 230.48,708.46 L 230.49,708.47 L 230.5,708.47 L 230.52,708.48 L 230.53,708.48 L 230.54,708.49 L 230.55,708.5 L 230.56,708.5 L 230.57,708.51 L 230.58,708.52 L 230.58,708.53 L 230.58,708.53 L 230.59,708.54 L 230.59,708.54 L 230.59,708.55 L 230.6,708.55 L 230.6,708.56 L 230.6,708.57 L 230.61,708.57 L 230.61,708.58 L 230.61,708.59 L 230.61,708.6 L 230.61,708.6 L 230.61,708.61 L 230.61,708.62 L 230.62,708.63 L 230.62,708.64 L 230.62,708.65 C 230.62,708.85 230.43,708.85 230.28,708.85 L 224.33,708.85 C 224.18,708.85 223.99,708.85 223.99,708.65 C 223.99,708.45 224.18,708.45 224.32,708.45 L 230.29,708.45 z"
   style="fill:#000000;stroke-width:0" />
</g>    <g
       id="g8316"
       transform="matrix(0.6708662,0,0,-0.6352333,-9.30212,576.18864)"
       xml:space="preserve"
       stroke-miterlimit="10.433"
       fill-rule="even-odd"
       font-style="normal"
       font-variant="normal"
       font-weight="normal"
       font-stretch="normal"
       font-size-adjust="none"
       letter-spacing="normal"
       word-spacing="normal"
       ns0:text="$w$"
       ns0:preamble=""
       style="font-style:normal;font-variant:normal;font-weight:normal;font-stretch:normal;letter-spacing:normal;word-spacing:normal;text-anchor:start;fill:none;fill-opacity:1;stroke:#000000;stroke-width:1.53184712;stroke-linecap:butt;stroke-linejoin:miter;stroke-miterlimit:10.43299961;stroke-dasharray:none;stroke-dashoffset:0;stroke-opacity:1;display:inline">
<path
   style="fill:#000000;stroke-width:0"
   d="M 228.04,710.5 L 228.04,710.52 L 228.04,710.54 L 228.05,710.57 L 228.06,710.59 L 228.06,710.61 L 228.07,710.64 L 228.08,710.69 L 228.09,710.74 L 228.1,710.79 L 228.12,710.84 L 228.13,710.88 L 228.13,710.91 L 228.14,710.93 L 228.15,710.95 L 228.15,710.97 L 228.16,710.99 L 228.16,711.01 L 228.16,711.03 L 228.17,711.05 L 228.17,711.07 L 228.18,711.08 L 228.18,711.1 L 228.18,711.11 L 228.18,711.12 L 228.18,711.13 L 228.18,711.14 L 228.18,711.15 C 228.18,711.33 228.04,711.42 227.9,711.42 C 227.78,711.42 227.6,711.34 227.53,711.14 C 227.5,711.07 227.03,709.16 226.96,708.91 C 226.89,708.61 226.87,708.43 226.87,708.25 C 226.87,708.14 226.87,708.12 226.88,708.07 C 226.65,707.54 226.35,707.23 225.96,707.23 C 225.17,707.23 225.17,707.97 225.17,708.14 C 225.17,708.46 225.22,708.85 225.68,710.07 C 225.79,710.37 225.85,710.51 225.85,710.71 C 225.85,711.16 225.52,711.53 225.04,711.53 C 224.09,711.53 223.72,710.08 223.72,709.99 C 223.72,709.89 223.82,709.89 223.84,709.89 C 223.94,709.89 223.95,709.91 224,710.07 C 224.27,711 224.66,711.31 225.01,711.31 C 225.1,711.31 225.26,711.3 225.26,710.98 C 225.26,710.73 225.15,710.45 225.08,710.28 C 224.64,709.1 224.52,708.65 224.52,708.27 C 224.52,707.36 225.19,707.01 225.93,707.01 C 226.1,707.01 226.57,707.01 226.97,707.71 C 227.23,707.07 227.92,707.01 228.21,707.01 C 228.96,707.01 229.4,707.64 229.66,708.24 C 230,709.02 230.32,710.35 230.32,710.83 C 230.32,711.38 230.05,711.53 229.88,711.53 C 229.63,711.53 229.38,711.27 229.38,711.05 C 229.38,710.92 229.44,710.86 229.53,710.78 C 229.64,710.67 229.89,710.41 229.89,709.93 C 229.89,709.59 229.6,708.62 229.34,708.11 C 229.08,707.58 228.73,707.23 228.24,707.23 C 227.78,707.23 227.51,707.53 227.51,708.1 C 227.51,708.38 227.58,708.69 227.62,708.83 L 228.04,710.5 z"
   id="path8318" />
</g>    <g
       style="font-style:normal;font-variant:normal;font-weight:normal;font-stretch:normal;letter-spacing:normal;word-spacing:normal;text-anchor:start;fill:none;fill-opacity:1;stroke:#000000;stroke-width:1.53184712;stroke-linecap:butt;stroke-linejoin:miter;stroke-miterlimit:10.43299961;stroke-dasharray:none;stroke-dashoffset:0;stroke-opacity:1;display:inline"
       ns0:preamble=""
       ns0:text="$u_{0}$"
       word-spacing="normal"
       letter-spacing="normal"
       font-size-adjust="none"
       font-stretch="normal"
       font-weight="normal"
       font-variant="normal"
       font-style="normal"
       fill-rule="even-odd"
       stroke-miterlimit="10.433"
       xml:space="preserve"
       transform="matrix(0.6708662,0,0,-0.6352333,-142.92511,553.92912)"
       id="g7578">
<path
   id="path7580"
   d="M 226.92,707.68 L 226.93,707.64 L 226.94,707.61 L 226.96,707.57 L 226.97,707.53 L 226.99,707.5 L 227.01,707.47 L 227.02,707.43 L 227.04,707.4 L 227.06,707.37 L 227.09,707.34 L 227.11,707.32 L 227.14,707.29 L 227.16,707.26 L 227.19,707.24 L 227.21,707.22 L 227.24,707.19 L 227.27,707.17 L 227.3,707.15 L 227.33,707.13 L 227.37,707.12 L 227.4,707.1 L 227.43,707.09 L 227.47,707.07 L 227.5,707.06 L 227.54,707.05 L 227.57,707.04 L 227.61,707.03 L 227.65,707.02 L 227.69,707.02 L 227.73,707.02 L 227.77,707.01 L 227.81,707.01 C 228.15,707.01 228.38,707.24 228.54,707.56 C 228.71,707.92 228.84,708.53 228.84,708.55 C 228.84,708.65 228.75,708.65 228.72,708.65 C 228.62,708.65 228.61,708.61 228.58,708.47 C 228.44,707.91 228.25,707.23 227.84,707.23 C 227.63,707.23 227.53,707.36 227.53,707.69 C 227.53,707.91 227.65,708.38 227.73,708.73 C 227.82,709.09 227.92,709.44 228.01,709.8 C 228.04,709.95 228.13,710.33 228.18,710.48 C 228.23,710.71 228.32,711.09 228.32,711.15 C 228.32,711.33 228.18,711.42 228.04,711.42 C 227.99,711.42 227.73,711.41 227.65,711.07 C 227.46,710.34 227.02,708.6 226.9,708.07 C 226.89,708.03 226.49,707.23 225.76,707.23 C 225.25,707.23 225.15,707.68 225.15,708.05 C 225.15,708.61 225.43,709.39 225.68,710.08 C 225.8,710.38 225.85,710.52 225.85,710.71 C 225.85,711.16 225.54,711.53 225.04,711.53 C 224.09,711.53 223.72,710.08 223.72,709.99 C 223.72,709.89 223.82,709.89 223.84,709.89 C 223.94,709.89 223.95,709.91 224,710.07 C 224.25,710.94 224.63,711.31 225.01,711.31 C 225.1,711.31 225.26,711.3 225.26,710.98 C 225.26,710.74 225.15,710.45 225.09,710.3 C 224.72,709.31 224.51,708.7 224.51,708.21 C 224.51,707.26 225.2,707.01 225.73,707.01 C 226.39,707.01 226.75,707.46 226.92,707.68 z"
   style="fill:#000000;stroke-width:0" />
<path
   id="path7582"
   d="M 232.73,707.85 L 232.73,708 L 232.73,708.13 L 232.72,708.26 L 232.71,708.39 L 232.7,708.52 L 232.69,708.63 L 232.67,708.75 L 232.65,708.86 L 232.62,708.97 L 232.59,709.08 L 232.56,709.18 L 232.52,709.28 L 232.48,709.38 L 232.43,709.47 L 232.38,709.57 L 232.35,709.62 L 232.32,709.66 C 232.1,709.98 231.67,710.26 231.11,710.26 C 229.49,710.26 229.49,708.36 229.49,707.85 C 229.49,707.35 229.49,705.49 231.11,705.49 L 231.11,705.69 C 230.79,705.69 230.37,705.87 230.23,706.45 C 230.13,706.86 230.13,707.43 230.13,707.95 C 230.13,708.45 230.13,708.98 230.23,709.37 C 230.38,709.92 230.83,710.07 231.11,710.07 C 231.49,710.07 231.85,709.84 231.98,709.43 C 232.09,709.05 232.1,708.55 232.1,707.95 C 232.1,707.43 232.1,706.91 232.01,706.47 C 231.87,705.84 231.39,705.69 231.11,705.69 L 231.11,705.69 L 231.11,705.49 C 232.73,705.49 232.73,707.35 232.73,707.85 z"
   style="fill:#000000;stroke-width:0" />
</g>    <g
       style="font-style:normal;font-variant:normal;font-weight:normal;font-stretch:normal;letter-spacing:normal;word-spacing:normal;text-anchor:start;fill:none;fill-opacity:1;stroke:#000000;stroke-width:1.53184712;stroke-linecap:butt;stroke-linejoin:miter;stroke-miterlimit:10.43299961;stroke-dasharray:none;stroke-dashoffset:0;stroke-opacity:1;display:inline"
       ns0:preamble=""
       ns0:text="$0$"
       word-spacing="normal"
       letter-spacing="normal"
       font-size-adjust="none"
       font-stretch="normal"
       font-weight="normal"
       font-variant="normal"
       font-style="normal"
       fill-rule="even-odd"
       stroke-miterlimit="10.433"
       xml:space="preserve"
       transform="matrix(0.6708662,0,0,-0.6352333,-129.66971,554.75628)"
       id="g8577">
<path
   id="path8579"
   d="M 228.01,710.31 L 228.01,710.46 L 228.01,710.61 L 228.01,710.76 L 228,710.91 L 227.99,711.06 L 227.98,711.2 L 227.97,711.35 L 227.95,711.5 L 227.92,711.65 L 227.9,711.79 L 227.86,711.94 L 227.83,712.08 L 227.78,712.22 L 227.73,712.36 L 227.68,712.5 L 227.65,712.57 L 227.62,712.64 C 227.16,713.6 226.34,713.76 225.92,713.76 C 225.32,713.76 224.6,713.5 224.19,712.57 C 223.87,711.89 223.82,711.11 223.82,710.31 C 223.82,709.56 223.86,708.67 224.27,707.91 C 224.7,707.1 225.43,706.9 225.91,706.9 L 225.91,707.12 C 225.52,707.12 224.94,707.37 224.76,708.33 C 224.65,708.93 224.65,709.84 224.65,710.43 C 224.65,711.07 224.65,711.72 224.73,712.26 C 224.92,713.45 225.66,713.54 225.91,713.54 C 226.24,713.54 226.9,713.36 227.09,712.37 C 227.19,711.82 227.19,711.06 227.19,710.43 C 227.19,709.68 227.19,709.01 227.08,708.37 C 226.93,707.42 226.36,707.12 225.91,707.12 L 225.91,707.12 L 225.91,706.9 C 226.45,706.9 227.21,707.11 227.65,708.06 C 227.96,708.75 228.01,709.52 228.01,710.31 z"
   style="fill:#000000;stroke-width:0" />
</g>    <g
       style="font-style:normal;font-variant:normal;font-weight:normal;font-stretch:normal;letter-spacing:normal;word-spacing:normal;text-anchor:start;fill:none;fill-opacity:1;stroke:#000000;stroke-width:1.53184712;stroke-linecap:butt;stroke-linejoin:miter;stroke-miterlimit:10.43299961;stroke-dasharray:none;stroke-dashoffset:0;stroke-opacity:1;display:inline"
       ns0:preamble=""
       ns0:text="$=$"
       word-spacing="normal"
       letter-spacing="normal"
       font-size-adjust="none"
       font-stretch="normal"
       font-weight="normal"
       font-variant="normal"
       font-style="normal"
       fill-rule="even-odd"
       stroke-miterlimit="10.433"
       xml:space="preserve"
       transform="matrix(0.6708662,0,0,-0.6352333,-135.40267,554.43012)"
       id="g8458">
<path
   id="path8460"
   d="M 230.28,710.38 L 230.31,710.38 L 230.33,710.38 L 230.36,710.38 L 230.38,710.38 L 230.39,710.38 L 230.41,710.38 L 230.42,710.39 L 230.44,710.39 L 230.45,710.39 L 230.46,710.39 L 230.48,710.4 L 230.49,710.4 L 230.5,710.41 L 230.51,710.41 L 230.53,710.42 L 230.54,710.42 L 230.55,710.43 L 230.56,710.44 L 230.57,710.44 L 230.58,710.45 L 230.58,710.46 L 230.59,710.47 L 230.59,710.48 L 230.59,710.48 L 230.6,710.49 L 230.6,710.49 L 230.6,710.5 L 230.61,710.51 L 230.61,710.51 L 230.61,710.52 L 230.61,710.53 L 230.61,710.54 L 230.61,710.54 L 230.61,710.55 L 230.62,710.56 L 230.62,710.57 L 230.62,710.58 C 230.62,710.78 230.43,710.78 230.29,710.78 L 224.32,710.78 C 224.18,710.78 223.99,710.78 223.99,710.58 C 223.99,710.38 224.18,710.38 224.33,710.38 L 230.28,710.38 z"
   style="fill:#000000;stroke-width:0" />
<path
   id="path8462"
   d="M 230.29,708.45 L 230.3,708.45 L 230.31,708.45 L 230.34,708.45 L 230.37,708.45 L 230.38,708.45 L 230.4,708.45 L 230.41,708.45 L 230.42,708.45 L 230.44,708.46 L 230.45,708.46 L 230.47,708.46 L 230.48,708.46 L 230.49,708.47 L 230.5,708.47 L 230.52,708.48 L 230.53,708.48 L 230.54,708.49 L 230.55,708.5 L 230.56,708.5 L 230.57,708.51 L 230.58,708.52 L 230.58,708.53 L 230.58,708.53 L 230.59,708.54 L 230.59,708.54 L 230.59,708.55 L 230.6,708.55 L 230.6,708.56 L 230.6,708.57 L 230.61,708.57 L 230.61,708.58 L 230.61,708.59 L 230.61,708.6 L 230.61,708.6 L 230.61,708.61 L 230.61,708.62 L 230.62,708.63 L 230.62,708.64 L 230.62,708.65 C 230.62,708.85 230.43,708.85 230.28,708.85 L 224.33,708.85 C 224.18,708.85 223.99,708.85 223.99,708.65 C 223.99,708.45 224.18,708.45 224.32,708.45 L 230.29,708.45 z"
   style="fill:#000000;stroke-width:0" />
</g>    <path
       sodipodi:nodetypes="cc"
       style="fill:none;fill-rule:evenodd;stroke:#000000;stroke-width:1px;stroke-linecap:butt;stroke-linejoin:miter;marker-end:url(#Arrow1Mend);stroke-opacity:1;display:inline"
       d="M 83.950516,43.541786 L 71.896555,63.580161"
       id="path3978"
       transform="translate(0,-6.5838902)" />
    <g
       style="font-style:normal;font-variant:normal;font-weight:normal;font-stretch:normal;letter-spacing:normal;word-spacing:normal;text-anchor:start;fill:none;fill-opacity:1;stroke:#000000;stroke-width:1.43321466;stroke-linecap:butt;stroke-linejoin:miter;stroke-miterlimit:10.43299961;stroke-dasharray:none;stroke-dashoffset:0;stroke-opacity:1;display:inline"
       ns0:preamble=""
       ns0:text="$e_i = e(u_i)$"
       word-spacing="normal"
       letter-spacing="normal"
       font-size-adjust="none"
       font-stretch="normal"
       font-weight="normal"
       font-variant="normal"
       font-style="normal"
       fill-rule="even-odd"
       stroke-miterlimit="10.433"
       xml:space="preserve"
       transform="matrix(0.7081899,0,0,-0.6874289,-73.568564,520.32817)"
       id="g9231">
<path
   id="path9233"
   d="M 225.3,709.42 L 225.32,709.42 L 225.36,709.42 L 225.39,709.42 L 225.42,709.43 L 225.46,709.43 L 225.5,709.43 L 225.54,709.43 L 225.59,709.43 L 225.63,709.43 L 225.68,709.44 L 225.72,709.44 L 225.77,709.44 L 225.82,709.45 L 225.87,709.45 L 225.98,709.46 L 226.09,709.47 L 226.19,709.49 L 226.3,709.51 L 226.41,709.53 L 226.52,709.55 L 226.57,709.57 L 226.62,709.58 L 226.67,709.6 L 226.72,709.62 L 226.77,709.63 L 226.82,709.65 C 227.52,709.95 227.57,710.54 227.57,710.68 C 227.57,711.12 227.19,711.53 226.5,711.53 L 226.5,711.31 C 226.97,711.31 227.24,711.02 227.24,710.68 C 227.24,709.64 225.64,709.64 225.24,709.64 L 224.83,709.64 C 225.22,711.16 226.24,711.31 226.5,711.31 L 226.5,711.53 C 225.4,711.53 223.89,710.56 223.89,708.82 C 223.89,707.8 224.48,707.01 225.46,707.01 C 226.88,707.01 227.72,708.07 227.72,708.19 C 227.72,708.25 227.66,708.32 227.6,708.32 C 227.55,708.32 227.53,708.3 227.47,708.22 C 226.68,707.23 225.59,707.23 225.48,707.23 C 224.7,707.23 224.61,708.07 224.61,708.39 C 224.61,708.51 224.62,708.82 224.77,709.42 L 225.3,709.42 z"
   style="fill:#000000;stroke-width:0" />
<path
   id="path9235"
   d="M 230.33,709.99 L 230.33,710 L 230.33,710.01 L 230.32,710.02 L 230.32,710.03 L 230.32,710.04 L 230.32,710.05 L 230.31,710.07 L 230.31,710.08 L 230.31,710.09 L 230.3,710.1 L 230.3,710.11 L 230.29,710.12 L 230.28,710.13 L 230.28,710.14 L 230.27,710.15 L 230.26,710.16 L 230.25,710.17 L 230.24,710.18 L 230.23,710.19 L 230.22,710.2 L 230.21,710.21 L 230.2,710.21 L 230.19,710.22 L 230.17,710.23 L 230.16,710.23 L 230.15,710.24 L 230.13,710.24 L 230.12,710.25 L 230.1,710.25 L 230.08,710.25 L 230.07,710.25 L 230.05,710.25 C 229.86,710.25 229.66,710.07 229.66,709.87 C 229.66,709.75 229.75,709.6 229.94,709.6 C 230.14,709.6 230.33,709.8 230.33,709.99 z"
   style="fill:#000000;stroke-width:0" />
<path
   id="path9237"
   d="M 228.9,706.45 L 228.9,706.43 L 228.89,706.41 L 228.88,706.38 L 228.88,706.36 L 228.87,706.34 L 228.87,706.33 L 228.86,706.31 L 228.86,706.29 L 228.85,706.27 L 228.85,706.26 L 228.85,706.24 L 228.85,706.23 L 228.85,706.22 L 228.84,706.21 L 228.84,706.2 L 228.84,706.19 L 228.84,706.17 L 228.84,706.16 L 228.84,706.15 C 228.84,705.83 229.12,705.56 229.5,705.56 C 230.2,705.56 230.51,706.52 230.51,706.63 C 230.51,706.72 230.42,706.72 230.4,706.72 C 230.3,706.72 230.29,706.68 230.26,706.6 C 230.1,706.04 229.8,705.76 229.52,705.76 C 229.39,705.76 229.35,705.85 229.35,706 C 229.35,706.16 229.4,706.29 229.46,706.45 C 229.53,706.63 229.61,706.82 229.68,707 C 229.75,707.17 230,707.81 230.03,707.89 C 230.05,707.96 230.07,708.04 230.07,708.11 C 230.07,708.44 229.79,708.71 229.41,708.71 C 228.72,708.71 228.4,707.76 228.4,707.64 C 228.4,707.55 228.49,707.55 228.51,707.55 C 228.61,707.55 228.62,707.58 228.64,707.66 C 228.82,708.26 229.13,708.51 229.39,708.51 C 229.5,708.51 229.56,708.45 229.56,708.27 C 229.56,708.11 229.52,708 229.34,707.57 L 228.9,706.45 z"
   style="fill:#000000;stroke-width:0" />
<path
   id="path9239"
   d="M 241,710.38 L 241.03,710.38 L 241.06,710.38 L 241.09,710.38 L 241.1,710.38 L 241.12,710.38 L 241.13,710.38 L 241.15,710.39 L 241.16,710.39 L 241.17,710.39 L 241.19,710.39 L 241.2,710.4 L 241.21,710.4 L 241.23,710.41 L 241.24,710.41 L 241.25,710.42 L 241.26,710.42 L 241.27,710.43 L 241.28,710.44 L 241.29,710.44 L 241.3,710.45 L 241.31,710.46 L 241.31,710.47 L 241.32,710.48 L 241.32,710.48 L 241.32,710.49 L 241.33,710.49 L 241.33,710.5 L 241.33,710.51 L 241.33,710.51 L 241.33,710.52 L 241.34,710.53 L 241.34,710.54 L 241.34,710.54 L 241.34,710.55 L 241.34,710.56 L 241.34,710.57 L 241.34,710.58 C 241.34,710.78 241.15,710.78 241.01,710.78 L 235.04,710.78 C 234.9,710.78 234.71,710.78 234.71,710.58 C 234.71,710.38 234.9,710.38 235.05,710.38 L 241,710.38 z"
   style="fill:#000000;stroke-width:0" />
<path
   id="path9241"
   d="M 241.01,708.45 L 241.03,708.45 L 241.04,708.45 L 241.07,708.45 L 241.09,708.45 L 241.11,708.45 L 241.12,708.45 L 241.14,708.45 L 241.15,708.45 L 241.16,708.46 L 241.18,708.46 L 241.19,708.46 L 241.2,708.46 L 241.22,708.47 L 241.23,708.47 L 241.24,708.48 L 241.25,708.48 L 241.26,708.49 L 241.27,708.5 L 241.28,708.5 L 241.29,708.51 L 241.3,708.52 L 241.31,708.53 L 241.31,708.53 L 241.31,708.54 L 241.32,708.54 L 241.32,708.55 L 241.32,708.55 L 241.33,708.56 L 241.33,708.57 L 241.33,708.57 L 241.33,708.58 L 241.33,708.59 L 241.34,708.6 L 241.34,708.6 L 241.34,708.61 L 241.34,708.62 L 241.34,708.63 L 241.34,708.64 L 241.34,708.65 C 241.34,708.85 241.15,708.85 241,708.85 L 235.05,708.85 C 234.9,708.85 234.71,708.85 234.71,708.65 C 234.71,708.45 234.9,708.45 235.04,708.45 L 241.01,708.45 z"
   style="fill:#000000;stroke-width:0" />
<path
   id="path9243"
   d="M 246.54,709.42 L 246.56,709.42 L 246.6,709.42 L 246.63,709.42 L 246.66,709.43 L 246.7,709.43 L 246.74,709.43 L 246.78,709.43 L 246.83,709.43 L 246.87,709.43 L 246.92,709.44 L 246.96,709.44 L 247.01,709.44 L 247.06,709.45 L 247.11,709.45 L 247.22,709.46 L 247.33,709.47 L 247.43,709.49 L 247.54,709.51 L 247.65,709.53 L 247.76,709.55 L 247.81,709.57 L 247.86,709.58 L 247.91,709.6 L 247.96,709.62 L 248.01,709.63 L 248.06,709.65 C 248.76,709.95 248.81,710.54 248.81,710.68 C 248.81,711.12 248.43,711.53 247.74,711.53 L 247.74,711.31 C 248.21,711.31 248.48,711.02 248.48,710.68 C 248.48,709.64 246.88,709.64 246.48,709.64 L 246.07,709.64 C 246.46,711.16 247.48,711.31 247.74,711.31 L 247.74,711.53 C 246.63,711.53 245.13,710.56 245.13,708.82 C 245.13,707.8 245.72,707.01 246.7,707.01 C 248.12,707.01 248.96,708.07 248.96,708.19 C 248.96,708.25 248.9,708.32 248.84,708.32 C 248.79,708.32 248.77,708.3 248.71,708.22 C 247.92,707.23 246.83,707.23 246.71,707.23 C 245.94,707.23 245.85,708.07 245.85,708.39 C 245.85,708.51 245.86,708.82 246.01,709.42 L 246.54,709.42 z"
   style="fill:#000000;stroke-width:0" />
<path
   id="path9245"
   d="M 252.6,704.73 L 252.6,704.74 L 252.6,704.74 L 252.6,704.75 L 252.6,704.75 L 252.6,704.75 L 252.6,704.75 L 252.6,704.76 L 252.6,704.76 L 252.6,704.77 L 252.6,704.77 L 252.59,704.77 L 252.59,704.78 L 252.59,704.78 L 252.58,704.79 L 252.58,704.79 L 252.57,704.8 L 252.57,704.81 L 252.56,704.81 L 252.56,704.82 L 252.56,704.82 L 252.55,704.83 L 252.55,704.83 L 252.55,704.84 L 252.54,704.84 L 252.54,704.84 L 252.53,704.85 L 252.53,704.85 L 252.52,704.86 L 252.52,704.86 L 252.51,704.87 L 252.51,704.88 L 252.5,704.88 L 252.5,704.89 L 252.49,704.89 L 252.49,704.9 L 252.48,704.91 L 252.47,704.91 L 252.47,704.92 L 252.46,704.93 L 252.45,704.94 L 252.44,704.94 L 252.44,704.95 C 251.19,706.21 250.87,708.09 250.87,709.61 C 250.87,711.35 251.25,713.08 252.48,714.33 C 252.6,714.45 252.6,714.47 252.6,714.49 C 252.6,714.57 252.57,714.59 252.51,714.59 C 252.41,714.59 251.51,713.92 250.92,712.65 C 250.41,711.56 250.29,710.45 250.29,709.61 C 250.29,708.84 250.4,707.63 250.95,706.51 C 251.55,705.28 252.41,704.63 252.51,704.63 C 252.57,704.63 252.6,704.66 252.6,704.73 z"
   style="fill:#000000;stroke-width:0" />
<path
   id="path9247"
   d="M 256.67,707.68 L 256.68,707.64 L 256.7,707.61 L 256.71,707.57 L 256.72,707.53 L 256.74,707.5 L 256.76,707.47 L 256.78,707.43 L 256.8,707.4 L 256.82,707.37 L 256.84,707.34 L 256.86,707.32 L 256.89,707.29 L 256.91,707.26 L 256.94,707.24 L 256.97,707.22 L 257,707.19 L 257.02,707.17 L 257.06,707.15 L 257.09,707.13 L 257.12,707.12 L 257.15,707.1 L 257.19,707.09 L 257.22,707.07 L 257.25,707.06 L 257.29,707.05 L 257.33,707.04 L 257.36,707.03 L 257.4,707.02 L 257.44,707.02 L 257.48,707.02 L 257.52,707.01 L 257.56,707.01 C 257.91,707.01 258.14,707.24 258.3,707.56 C 258.46,707.92 258.6,708.53 258.6,708.55 C 258.6,708.65 258.51,708.65 258.48,708.65 C 258.38,708.65 258.37,708.61 258.34,708.47 C 258.2,707.91 258.01,707.23 257.59,707.23 C 257.38,707.23 257.28,707.36 257.28,707.69 C 257.28,707.91 257.4,708.38 257.48,708.73 C 257.57,709.09 257.67,709.44 257.76,709.8 C 257.79,709.95 257.89,710.33 257.93,710.48 C 257.98,710.71 258.08,711.09 258.08,711.15 C 258.08,711.33 257.94,711.42 257.79,711.42 C 257.74,711.42 257.48,711.41 257.4,711.07 C 257.21,710.34 256.77,708.6 256.65,708.07 C 256.64,708.03 256.24,707.23 255.52,707.23 C 255,707.23 254.9,707.68 254.9,708.05 C 254.9,708.61 255.18,709.39 255.44,710.08 C 255.56,710.38 255.61,710.52 255.61,710.71 C 255.61,711.16 255.29,711.53 254.79,711.53 C 253.84,711.53 253.47,710.08 253.47,709.99 C 253.47,709.89 253.57,709.89 253.59,709.89 C 253.69,709.89 253.7,709.91 253.75,710.07 C 254,710.94 254.38,711.31 254.76,711.31 C 254.85,711.31 255.01,711.3 255.01,710.98 C 255.01,710.74 254.9,710.45 254.84,710.3 C 254.47,709.31 254.26,708.7 254.26,708.21 C 254.26,707.26 254.95,707.01 255.49,707.01 C 256.14,707.01 256.5,707.46 256.67,707.68 z"
   style="fill:#000000;stroke-width:0" />
<path
   id="path9249"
   d="M 261.14,709.99 L 261.14,710 L 261.14,710.01 L 261.14,710.02 L 261.14,710.03 L 261.14,710.04 L 261.14,710.05 L 261.13,710.07 L 261.13,710.08 L 261.12,710.09 L 261.12,710.1 L 261.11,710.11 L 261.11,710.12 L 261.1,710.13 L 261.09,710.14 L 261.09,710.15 L 261.08,710.16 L 261.07,710.17 L 261.06,710.18 L 261.05,710.19 L 261.04,710.2 L 261.03,710.21 L 261.02,710.21 L 261,710.22 L 260.99,710.23 L 260.98,710.23 L 260.96,710.24 L 260.95,710.24 L 260.93,710.25 L 260.92,710.25 L 260.9,710.25 L 260.88,710.25 L 260.87,710.25 C 260.68,710.25 260.48,710.07 260.48,709.87 C 260.48,709.75 260.57,709.6 260.75,709.6 C 260.96,709.6 261.14,709.8 261.14,709.99 z"
   style="fill:#000000;stroke-width:0" />
<path
   id="path9251"
   d="M 259.72,706.45 L 259.72,706.43 L 259.71,706.41 L 259.7,706.38 L 259.69,706.36 L 259.69,706.34 L 259.68,706.33 L 259.68,706.31 L 259.68,706.29 L 259.67,706.27 L 259.67,706.26 L 259.66,706.24 L 259.66,706.23 L 259.66,706.22 L 259.66,706.21 L 259.66,706.2 L 259.66,706.19 L 259.66,706.17 L 259.66,706.16 L 259.66,706.15 C 259.66,705.83 259.94,705.56 260.32,705.56 C 261.02,705.56 261.33,706.52 261.33,706.63 C 261.33,706.72 261.23,706.72 261.21,706.72 C 261.12,706.72 261.11,706.68 261.08,706.6 C 260.92,706.04 260.61,705.76 260.34,705.76 C 260.2,705.76 260.17,705.85 260.17,706 C 260.17,706.16 260.22,706.29 260.28,706.45 C 260.35,706.63 260.43,706.82 260.5,707 C 260.57,707.17 260.82,707.81 260.85,707.89 C 260.87,707.96 260.89,708.04 260.89,708.11 C 260.89,708.44 260.61,708.71 260.22,708.71 C 259.53,708.71 259.21,707.76 259.21,707.64 C 259.21,707.55 259.31,707.55 259.33,707.55 C 259.43,707.55 259.44,707.58 259.46,707.66 C 259.64,708.26 259.95,708.51 260.2,708.51 C 260.32,708.51 260.38,708.45 260.38,708.27 C 260.38,708.11 260.34,708 260.16,707.57 L 259.72,706.45 z"
   style="fill:#000000;stroke-width:0" />
<path
   id="path9253"
   d="M 265.09,709.61 L 265.09,709.69 L 265.09,709.76 L 265.08,709.84 L 265.08,709.92 L 265.07,710.09 L 265.06,710.27 L 265.04,710.45 L 265.02,710.64 L 265,710.84 L 264.96,711.04 L 264.92,711.24 L 264.88,711.45 L 264.82,711.66 L 264.76,711.87 L 264.69,712.08 L 264.61,712.3 L 264.57,712.4 L 264.53,712.51 L 264.48,712.62 L 264.43,712.72 C 263.83,713.95 262.98,714.59 262.88,714.59 C 262.82,714.59 262.77,714.55 262.77,714.49 C 262.77,714.47 262.77,714.45 262.96,714.27 C 263.94,713.28 264.51,711.7 264.51,709.61 C 264.51,707.91 264.14,706.16 262.9,704.9 C 262.77,704.78 262.77,704.76 262.77,704.73 C 262.77,704.67 262.82,704.63 262.88,704.63 C 262.98,704.63 263.87,705.31 264.46,706.58 C 264.97,707.67 265.09,708.78 265.09,709.61 z"
   style="fill:#000000;stroke-width:0" />
</g>  </g>
</svg>
